<svg width="330" height="64" viewBox="0 0 330 64" fill="none" xmlns="http://www.w3.org/2000/svg">
<mask id="mask0_159075_14019" style="mask-type:luminance" maskUnits="userSpaceOnUse" x="0" y="0" width="330" height="64">
<path d="M329.436 0H0V63.0926H329.436V0Z" fill="white"/>
</mask>
<g mask="url(#mask0_159075_14019)">
<path d="M58.5575 11.1384C58.5575 14.6796 57.332 17.6408 54.8767 20.022C52.4214 22.4032 49.373 23.5938 45.7357 23.5938C42.0986 23.5938 39.0501 22.4032 36.5948 20.022C34.1439 17.6408 32.9141 14.6796 32.9141 11.1384V0.880981H58.5531V11.1384H58.5575ZM38.5573 11.1384C38.5573 13.1663 39.2115 14.8061 40.5155 16.0665C41.8238 17.3225 43.5596 17.9504 45.7357 17.9504C47.912 17.9504 49.6478 17.3225 50.9561 16.0665C52.26 14.8061 52.9142 13.1663 52.9142 11.1384V6.74235H38.553V11.1384H38.5573Z" fill="#024CFF"/>
<path d="M58.5532 54.4706H32.9141V48.727H48.0429L37.3843 42.2332V41.5834L48.0429 35.0897H39.3424V29.3461H58.5532V35.0897L47.3931 41.9062L58.5532 48.7226V54.4662V54.4706Z" fill="#29F29B"/>
<path d="M22.7128 40.1792C23.053 40.2141 23.3932 40.2751 23.7333 40.2751C26.254 40.2751 28.7748 39.3157 30.6981 37.3968C32.5559 35.5346 33.5807 33.0618 33.5807 30.4321C33.5807 27.8022 32.5559 25.3296 30.6981 23.4716C28.8359 21.6094 26.3631 20.589 23.7333 20.589C21.1036 20.589 18.6308 21.6138 16.773 23.4716C15.0416 25.1987 14.0733 27.4665 13.9426 29.8913C10.2661 29.368 6.39343 30.5019 3.57177 33.3234C-1.19059 38.0859 -1.19059 45.8312 3.57177 50.5979C7.07812 54.1044 10.8461 54.5142 13.707 54.5142C14.1781 54.5142 14.6229 54.5055 15.0372 54.4925C15.3774 54.4837 15.7044 54.475 16.0141 54.475H16.9561V63.0882H22.7128V54.475H32.9135V48.7182H22.7128V40.1748V40.1792ZM20.8419 27.5406C21.6138 26.7687 22.6386 26.3413 23.7333 26.3413C24.8279 26.3413 25.8529 26.7687 26.6247 27.5406C27.3966 28.3126 27.824 29.3374 27.824 30.4321C27.824 31.5267 27.3966 32.5516 26.6247 33.3234C25.0286 34.9197 22.4337 34.9197 20.8419 33.3234C20.07 32.5516 19.6426 31.5267 19.6426 30.4321C19.6426 29.3374 20.0656 28.3126 20.8419 27.5406ZM14.8889 48.7358C12.3551 48.8012 9.97393 48.8623 7.64072 46.5247C5.12434 44.0083 5.12434 39.9131 7.64072 37.3968C10.1571 34.8804 14.2566 34.8804 16.773 37.3968C16.8296 37.4535 16.8994 37.4927 16.9561 37.5451V48.7182H16.0141C15.6565 48.7182 15.2815 48.7271 14.8933 48.7358H14.8889Z" fill="#0AD3FF"/>
<path d="M23.7344 14.7581C25.948 14.7581 27.7424 12.9637 27.7424 10.7502C27.7424 8.5367 25.948 6.74231 23.7344 6.74231C21.521 6.74231 19.7266 8.5367 19.7266 10.7502C19.7266 12.9637 21.521 14.7581 23.7344 14.7581Z" fill="#024CFF"/>
<path d="M172.187 45.3341L169.252 42.3991L165.689 45.9577L163.23 43.498C164.29 42.4426 164.952 40.9861 164.952 39.3724C164.952 36.1626 162.339 33.5503 159.13 33.5503C155.921 33.5503 153.308 36.1626 153.308 39.3724C153.308 40.672 153.748 41.8583 154.472 42.8265C152.993 44.1261 152.039 46.0101 152.039 48.1295C152.039 52.0416 155.223 55.2207 159.13 55.2207C162.457 55.2207 164.267 53.3194 165.348 52.1855L165.693 51.8322L169.252 55.3909L172.187 52.4559L168.629 48.8971L172.191 45.3384L172.187 45.3341ZM157.459 39.3724C157.459 38.4522 158.205 37.7065 159.125 37.7065C160.046 37.7065 160.791 38.4566 160.791 39.3724C160.791 40.2883 160.046 41.0383 159.125 41.0383C158.205 41.0383 157.459 40.2883 157.459 39.3724ZM159.13 51.069C157.508 51.069 156.19 49.7519 156.19 48.134C156.19 46.516 157.472 45.2425 159.056 45.2032L162.75 48.8971L162.335 49.3245C161.441 50.2622 160.669 51.069 159.125 51.069H159.13Z" fill="#024CFF"/>
<path d="M93.5932 21.3914H88.2596L81.696 11.9147V21.3914H77.0078V0.880981H81.696V9.78642L87.9674 0.880981H93.301L86.3842 10.8724L93.5932 21.3914Z" fill="#024CFF"/>
<path d="M103.837 6.33249C105.402 6.33249 106.706 6.86891 107.753 7.94611C108.795 9.01895 109.319 10.5061 109.319 12.3988V21.3959H104.923V13.0443C104.923 12.1851 104.683 11.5266 104.207 11.0643C103.728 10.6064 103.117 10.3753 102.376 10.3753C101.538 10.3753 100.871 10.6282 100.383 11.1385C99.8942 11.6444 99.65 12.3988 99.65 13.3975V21.3959H95.2539V6.73807H99.65V8.1162C100.531 6.92561 101.927 6.32812 103.841 6.32812L103.837 6.33249Z" fill="#024CFF"/>
<path d="M124.947 19.5643C123.443 21.0601 121.606 21.8058 119.439 21.8058C117.271 21.8058 115.435 21.0601 113.93 19.5643C112.426 18.0683 111.676 16.2367 111.676 14.0692C111.676 11.9017 112.426 10.07 113.93 8.57415C115.435 7.07828 117.271 6.33252 119.439 6.33252C121.606 6.33252 123.446 7.07828 124.947 8.57415C126.452 10.07 127.206 11.8973 127.206 14.0692C127.206 16.2411 126.452 18.0683 124.947 19.5643ZM117.031 16.555C117.677 17.2005 118.475 17.5232 119.434 17.5232C120.394 17.5232 121.192 17.2005 121.837 16.555C122.483 15.9096 122.806 15.0809 122.806 14.0648C122.806 13.0487 122.483 12.2201 121.837 11.5746C121.192 10.9292 120.389 10.6064 119.434 10.6064C118.479 10.6064 117.677 10.9292 117.031 11.5746C116.386 12.2201 116.063 13.0487 116.063 14.0648C116.063 15.0809 116.386 15.9096 117.031 16.555Z" fill="#024CFF"/>
<path d="M145.373 6.73804H150.062L145.373 21.3914H141.27L138.923 13.5676L136.577 21.3914H132.474L127.785 6.73804H132.474L134.584 14.5925L136.869 6.73804H140.973L143.258 14.5925L145.37 6.73804H145.373Z" fill="#024CFF"/>
<path d="M151.789 21.3914V0H156.186V21.3914H151.789Z" fill="#024CFF"/>
<path d="M163.44 15.8267C163.945 17.196 165.118 17.8808 166.955 17.8808C168.145 17.8808 169.083 17.51 169.768 16.7686L173.282 18.7921C171.838 20.8027 169.706 21.8101 166.893 21.8101C164.434 21.8101 162.462 21.0775 160.989 19.6121C159.514 18.1467 158.773 16.302 158.773 14.0735C158.773 11.8449 159.501 10.0219 160.958 8.54788C162.414 7.07382 164.285 6.33679 166.571 6.33679C168.699 6.33679 170.474 7.07382 171.891 8.54788C173.309 10.0219 174.015 11.8667 174.015 14.0735C174.015 14.6971 173.958 15.2858 173.841 15.831H163.435L163.44 15.8267ZM163.352 12.5427H169.654C169.223 10.9988 168.189 10.2269 166.549 10.2269C164.91 10.2269 163.784 10.9988 163.352 12.5427Z" fill="#024CFF"/>
<path d="M187.178 0.880981H191.574V21.3958H187.178V20.0177C186.14 21.2082 184.688 21.8057 182.808 21.8057C180.929 21.8057 179.224 21.0599 177.853 19.5641C176.484 18.0682 175.805 16.2365 175.805 14.0691C175.805 11.9016 176.489 10.0699 177.853 8.57403C179.219 7.07816 180.871 6.3324 182.808 6.3324C184.744 6.3324 186.14 6.92988 187.178 8.12047V0.880981ZM181.168 16.6726C181.813 17.3182 182.651 17.6408 183.689 17.6408C184.727 17.6408 185.565 17.3182 186.21 16.6726C186.855 16.0272 187.178 15.1593 187.178 14.0647C187.178 12.97 186.855 12.1022 186.21 11.4567C185.565 10.8113 184.723 10.4886 183.689 10.4886C182.655 10.4886 181.813 10.8113 181.168 11.4567C180.523 12.1022 180.2 12.97 180.2 14.0647C180.2 15.1593 180.523 16.0272 181.168 16.6726Z" fill="#024CFF"/>
<path d="M205.566 6.73811H209.843V20.6589C209.843 22.966 209.094 24.7104 207.588 25.8923C206.084 27.0741 204.257 27.6629 202.107 27.6629C198.806 27.6629 196.49 26.481 195.16 24.1173L198.91 21.9497C199.573 23.1797 200.685 23.7945 202.251 23.7945C203.289 23.7945 204.096 23.5241 204.685 22.9877C205.269 22.4513 205.566 21.6706 205.566 20.6589V19.3113C204.55 20.5804 203.123 21.2171 201.287 21.2171C199.238 21.2171 197.519 20.4887 196.145 19.0322C194.768 17.5755 194.078 15.8224 194.078 13.7726C194.078 11.7229 194.768 9.96971 196.145 8.5131C197.524 7.05647 199.238 6.33252 201.287 6.33252C203.123 6.33252 204.55 6.96489 205.566 8.23834V6.74247V6.73811ZM199.469 16.2367C200.131 16.8603 200.982 17.1743 202.02 17.1743C203.058 17.1743 203.903 16.8603 204.571 16.2367C205.238 15.613 205.569 14.7931 205.569 13.777C205.569 12.7609 205.238 11.9409 204.571 11.3173C203.903 10.6937 203.058 10.3797 202.02 10.3797C200.982 10.3797 200.136 10.6893 199.469 11.3173C198.801 11.9453 198.475 12.7652 198.475 13.777C198.475 14.7888 198.806 15.613 199.469 16.2367Z" fill="#024CFF"/>
<path d="M217.055 15.8267C217.566 17.196 218.739 17.8808 220.575 17.8808C221.765 17.8808 222.703 17.51 223.388 16.7686L226.908 18.7921C225.459 20.8027 223.33 21.8101 220.519 21.8101C218.058 21.8101 216.088 21.0775 214.613 19.6121C213.138 18.1467 212.402 16.302 212.402 14.0735C212.402 11.8449 213.13 10.0219 214.587 8.54788C216.043 7.07382 217.911 6.33679 220.2 6.33679C222.328 6.33679 224.103 7.07382 225.52 8.54788C226.937 10.0219 227.644 11.8667 227.644 14.0735C227.644 14.6971 227.584 15.2858 227.469 15.831H217.064L217.055 15.8267ZM216.968 12.5427H223.27C222.842 10.9988 221.804 10.2269 220.165 10.2269C218.525 10.2269 217.4 10.9988 216.972 12.5427H216.968Z" fill="#024CFF"/>
<path d="M247.389 21.8057C244.32 21.8057 241.777 20.7853 239.758 18.7442C237.735 16.7032 236.723 14.1695 236.723 11.1384C236.723 8.10742 237.735 5.5736 239.758 3.53258C241.782 1.49158 244.324 0.471069 247.389 0.471069C249.226 0.471069 250.927 0.894099 252.488 1.74452C254.053 2.59494 255.284 3.75501 256.182 5.21599L252.139 7.56228C251.69 6.75982 251.045 6.14055 250.207 5.70007C249.366 5.2596 248.428 5.04154 247.394 5.04154C245.576 5.04154 244.127 5.5954 243.042 6.71186C241.96 7.82395 241.415 9.30237 241.415 11.1384C241.415 12.9745 241.956 14.4485 243.042 15.565C244.127 16.6771 245.576 17.2353 247.394 17.2353C248.432 17.2353 249.374 17.0086 250.221 16.5593C251.071 16.1101 251.711 15.4952 252.139 14.7145L256.182 17.0608C255.301 18.5262 254.08 19.6862 252.519 20.5323C250.953 21.3827 249.248 21.8057 247.389 21.8057Z" fill="#024CFF"/>
<path d="M262.282 15.8267C262.792 17.196 263.965 17.8808 265.802 17.8808C266.992 17.8808 267.93 17.51 268.615 16.7686L272.134 18.7921C270.685 20.8027 268.558 21.8101 265.745 21.8101C263.286 21.8101 261.314 21.0775 259.84 19.6121C258.366 18.1467 257.629 16.302 257.629 14.0735C257.629 11.8449 258.356 10.0219 259.814 8.54788C261.27 7.07382 263.137 6.33679 265.426 6.33679C267.555 6.33679 269.33 7.07382 270.747 8.54788C272.165 10.0219 272.87 11.8667 272.87 14.0735C272.87 14.6971 272.81 15.2858 272.696 15.831H262.291L262.282 15.8267ZM262.195 12.5427H268.497C268.069 10.9988 267.031 10.2269 265.392 10.2269C263.752 10.2269 262.627 10.9988 262.199 12.5427H262.195Z" fill="#024CFF"/>
<path d="M284 6.33249C285.562 6.33249 286.866 6.86891 287.913 7.94611C288.959 9.01895 289.483 10.5061 289.483 12.3988V21.3959H285.086V13.0443C285.086 12.1851 284.847 11.5266 284.371 11.0643C283.896 10.602 283.28 10.3753 282.539 10.3753C281.698 10.3753 281.035 10.6282 280.546 11.1385C280.058 11.6444 279.813 12.3988 279.813 13.3975V21.3959H275.418V6.73807H279.813V8.1162C280.694 6.92561 282.09 6.32812 284.005 6.32812L284 6.33249Z" fill="#024CFF"/>
<path d="M300.999 10.9596H297.982V16.145C297.982 16.7294 298.217 17.1044 298.683 17.2571C299.151 17.4141 299.922 17.4621 300.999 17.4053V21.3914C298.204 21.6836 296.271 21.4133 295.194 20.5846C294.122 19.756 293.581 18.2732 293.581 16.145V10.9596H291.234V6.73801H293.581V3.95561L297.977 2.63855V6.74238H300.996V10.964L300.999 10.9596Z" fill="#024CFF"/>
<path d="M308.392 9.34608C308.663 8.40844 309.216 7.69321 310.049 7.19169C310.878 6.69451 311.793 6.44592 312.788 6.44592V11.4307C311.715 11.2563 310.711 11.4351 309.783 11.9715C308.854 12.5079 308.392 13.4412 308.392 14.7713V21.3959H303.996V6.73813H308.392V9.34608Z" fill="#024CFF"/>
<path d="M318.856 15.8267C319.367 17.196 320.539 17.8808 322.376 17.8808C323.567 17.8808 324.504 17.51 325.189 16.7686L328.708 18.7921C327.261 20.8027 325.132 21.8101 322.319 21.8101C319.86 21.8101 317.888 21.0775 316.414 19.6121C314.94 18.1467 314.203 16.302 314.203 14.0735C314.203 11.8449 314.932 10.0219 316.388 8.54788C317.844 7.07382 319.711 6.33679 322 6.33679C324.129 6.33679 325.904 7.07382 327.321 8.54788C328.739 10.0219 329.446 11.8667 329.446 14.0735C329.446 14.6971 329.384 15.2858 329.272 15.831H318.865L318.856 15.8267ZM318.769 12.5427H325.071C324.644 10.9988 323.606 10.2269 321.966 10.2269C320.326 10.2269 319.201 10.9988 318.774 12.5427H318.769Z" fill="#024CFF"/>
<path d="M85.2077 34.0255C88.0424 34.0255 90.4105 35.0068 92.3163 36.9693C94.2222 38.9318 95.1728 41.3697 95.1728 44.283C95.1728 47.1962 94.2222 49.6297 92.3163 51.5966C90.4105 53.5635 88.0424 54.5403 85.2077 54.5403H77V34.0255H85.2077ZM85.2077 50.0266C86.83 50.0266 88.1427 49.5032 89.1501 48.4566C90.1531 47.4142 90.6591 46.0186 90.6591 44.283C90.6591 42.5472 90.1531 41.1517 89.1501 40.105C88.1427 39.0626 86.83 38.5393 85.2077 38.5393H81.6926V50.0266H85.2077Z" fill="#024CFF"/>
<path d="M108.385 39.8826H112.781V54.5361H108.385V53.158C107.347 54.3485 105.895 54.9461 104.02 54.9461C102.144 54.9461 100.435 54.2003 99.0653 52.7044C97.6959 51.2085 97.0156 49.3769 97.0156 47.2094C97.0156 45.0419 97.7003 43.2102 99.0653 41.7143C100.43 40.2185 102.083 39.4728 104.02 39.4728C105.956 39.4728 107.351 40.0702 108.385 41.2608V39.8826ZM102.38 49.8174C103.025 50.4628 103.863 50.7855 104.901 50.7855C105.939 50.7855 106.776 50.4628 107.417 49.8174C108.062 49.172 108.385 48.304 108.385 47.2094C108.385 46.1147 108.062 45.2469 107.417 44.6014C106.771 43.956 105.934 43.6332 104.901 43.6332C103.867 43.6332 103.025 43.956 102.38 44.6014C101.734 45.2469 101.412 46.1147 101.412 47.2094C101.412 48.304 101.734 49.172 102.38 49.8174Z" fill="#024CFF"/>
<path d="M124.725 44.1042H121.707V49.2897C121.707 49.874 121.943 50.2491 122.409 50.4017C122.88 50.5587 123.652 50.6067 124.725 50.55V54.536C121.93 54.8283 119.998 54.5579 118.925 53.7292C117.847 52.9006 117.311 51.4178 117.311 49.2897V44.1042H114.965V39.8827H117.311V37.1003L121.707 35.7832V39.887H124.725V44.1085V44.1042Z" fill="#024CFF"/>
<path d="M138.034 39.8826H142.429V54.5361H138.034V53.158C136.996 54.3485 135.543 54.9461 133.668 54.9461C131.793 54.9461 130.083 54.2003 128.714 52.7044C127.345 51.2085 126.664 49.3769 126.664 47.2094C126.664 45.0419 127.349 43.2102 128.714 41.7143C130.079 40.2185 131.732 39.4728 133.668 39.4728C135.605 39.4728 137 40.0702 138.034 41.2608V39.8826ZM132.029 49.8174C132.674 50.4628 133.511 50.7855 134.548 50.7855C135.586 50.7855 136.424 50.4628 137.066 49.8174C137.711 49.172 138.034 48.304 138.034 47.2094C138.034 46.1147 137.711 45.2469 137.066 44.6014C136.419 43.956 135.583 43.6332 134.548 43.6332C133.516 43.6332 132.674 43.956 132.029 44.6014C131.382 45.2469 131.06 46.1147 131.06 47.2094C131.06 48.304 131.382 49.172 132.029 49.8174Z" fill="#024CFF"/>
<path d="M187.505 54.9504C185.416 54.9504 183.672 54.4969 182.272 53.5898C180.876 52.6826 179.882 51.444 179.297 49.8827L183.344 47.5366C184.165 49.4336 185.599 50.3799 187.654 50.3799C189.511 50.3799 190.436 49.8218 190.436 48.7097C190.436 48.1034 190.139 47.6281 189.542 47.2879C188.944 46.9477 187.828 46.5508 186.184 46.1017C185.324 45.8662 184.57 45.6045 183.929 45.3123C183.284 45.0201 182.651 44.6364 182.036 44.1523C181.422 43.6769 180.951 43.075 180.632 42.3511C180.309 41.6272 180.148 40.7985 180.148 39.8609C180.148 37.9681 180.824 36.4505 182.185 35.3209C183.545 34.1914 185.158 33.6201 187.034 33.6201C188.714 33.6201 190.2 34.017 191.487 34.8064C192.778 35.5957 193.794 36.747 194.535 38.2472L190.576 40.563C190.204 39.7824 189.746 39.1893 189.197 38.7881C188.652 38.3868 187.928 38.1863 187.029 38.1863C186.323 38.1863 185.783 38.3389 185.402 38.6398C185.019 38.945 184.832 39.3115 184.832 39.7387C184.832 40.2491 185.071 40.6895 185.551 41.0602C186.031 41.4309 187.026 41.8408 188.526 42.29C189.345 42.543 189.982 42.748 190.431 42.905C190.88 43.0619 191.452 43.3193 192.15 43.6813C192.843 44.0432 193.37 44.4226 193.729 44.8239C194.086 45.2251 194.413 45.7528 194.696 46.4069C194.98 47.0612 195.123 47.8069 195.123 48.6486C195.123 50.6024 194.417 52.1418 193.013 53.267C191.605 54.3878 189.769 54.9504 187.505 54.9504Z" fill="#024CFF"/>
<path d="M210.013 52.7088C208.509 54.2046 206.673 54.9504 204.505 54.9504C202.338 54.9504 200.502 54.2046 198.997 52.7088C197.493 51.2129 196.738 49.3812 196.738 47.2138C196.738 45.0463 197.488 43.2146 198.997 41.7187C200.502 40.2229 202.338 39.4771 204.505 39.4771C206.673 39.4771 208.509 40.2229 210.013 41.7187C211.518 43.2146 212.273 45.0419 212.273 47.2138C212.273 49.3856 211.518 51.2129 210.013 52.7088ZM202.098 49.6996C202.743 50.3451 203.546 50.6677 204.501 50.6677C205.456 50.6677 206.259 50.3451 206.904 49.6996C207.55 49.0542 207.867 48.2256 207.867 47.2094C207.867 46.1932 207.545 45.3647 206.904 44.7191C206.263 44.0737 205.456 43.751 204.501 43.751C203.546 43.751 202.743 44.0737 202.098 44.7191C201.453 45.3647 201.134 46.1932 201.134 47.2094C201.134 48.2256 201.456 49.0542 202.098 49.6996Z" fill="#024CFF"/>
<path d="M221.762 54.9504C219.534 54.9504 217.684 54.209 216.211 52.7218C214.736 51.2392 214 49.4031 214 47.2138C214 45.0245 214.736 43.1884 216.211 41.7056C217.684 40.2229 219.538 39.4771 221.762 39.4771C223.171 39.4771 224.462 39.8172 225.643 40.502C226.826 41.1867 227.737 42.0937 228.386 43.2276L224.549 45.4562C224.021 44.3615 223.074 43.8165 221.705 43.8165C220.746 43.8165 219.957 44.1348 219.329 44.7671C218.701 45.3995 218.391 46.2151 218.391 47.2138C218.391 48.2125 218.701 49.028 219.329 49.6603C219.952 50.2927 220.746 50.6111 221.705 50.6111C223.093 50.6111 224.039 50.066 224.549 48.9669L228.386 51.1649C227.741 52.3163 226.834 53.2365 225.662 53.9212C224.488 54.6059 223.188 54.9461 221.762 54.9461V54.9504Z" fill="#024CFF"/>
<path d="M234.45 37.8197C233.931 38.3388 233.312 38.596 232.588 38.596C231.864 38.596 231.245 38.3388 230.726 37.8197C230.207 37.3008 229.949 36.6815 229.949 35.9576C229.949 35.2336 230.207 34.6143 230.726 34.0954C231.245 33.5763 231.864 33.3191 232.588 33.3191C233.312 33.3191 233.931 33.5763 234.45 34.0954C234.969 34.6143 235.227 35.2336 235.227 35.9576C235.227 36.6815 234.969 37.3008 234.45 37.8197ZM230.39 54.536V39.8825H234.786V54.536H230.39Z" fill="#024CFF"/>
<path d="M241.891 48.9712C242.402 50.3407 243.575 51.0253 245.411 51.0253C246.601 51.0253 247.539 50.6547 248.224 49.9132L251.744 51.9368C250.295 53.9473 248.166 54.9548 245.355 54.9548C242.895 54.9548 240.923 54.222 239.449 52.7568C237.974 51.2914 237.238 49.4466 237.238 47.218C237.238 44.9895 237.966 43.1666 239.423 41.6926C240.879 40.2185 242.746 39.4814 245.036 39.4814C247.164 39.4814 248.939 40.2185 250.356 41.6926C251.773 43.1666 252.48 45.0113 252.48 47.218C252.48 47.8417 252.42 48.4305 252.305 48.9756H241.9L241.891 48.9712ZM241.804 45.6873H248.106C247.678 44.1435 246.64 43.3715 245.001 43.3715C243.361 43.3715 242.236 44.1435 241.808 45.6873H241.804Z" fill="#024CFF"/>
<path d="M263.535 44.1042H260.517V49.2897C260.517 49.874 260.752 50.2491 261.218 50.4017C261.686 50.5587 262.457 50.6067 263.535 50.55V54.536C260.739 54.8283 258.807 54.5579 257.73 53.7292C256.657 52.9006 256.116 51.4178 256.116 49.2897V44.1042H253.77V39.8827H256.116V37.1003L260.512 35.7832V39.887H263.53V44.1085L263.535 44.1042Z" fill="#024CFF"/>
<path d="M275.818 39.8826H280.507L275.496 54.0956C274.676 56.4026 273.594 58.0511 272.256 59.0498C270.918 60.0485 269.212 60.4978 267.14 60.3974V56.2936C268.156 56.2936 268.938 56.1148 269.487 55.7527C270.036 55.3909 270.472 54.7629 270.803 53.8601L264.973 39.8826H269.81L273.063 48.8535L275.818 39.8826Z" fill="#024CFF"/>
</g>
</svg>
