<svg width="24" height="25" viewBox="0 0 24 25" fill="none" xmlns="http://www.w3.org/2000/svg">
<path d="M6 6.51489L10.5 11.0149M6 6.51489H3L2 3.51489L3 2.51489L6 3.51489V6.51489ZM19.259 3.25591L16.6314 5.88352C16.2354 6.27954 16.0373 6.47755 15.9632 6.70588C15.8979 6.90672 15.8979 7.12307 15.9632 7.32391C16.0373 7.55224 16.2354 7.75025 16.6314 8.14626L16.8686 8.38352C17.2646 8.77954 17.4627 8.97755 17.691 9.05174C17.8918 9.11699 18.1082 9.11699 18.309 9.05174C18.5373 8.97755 18.7354 8.77954 19.1314 8.38352L21.5893 5.92561C21.854 6.56978 22 7.27529 22 8.01489C22 11.0525 19.5376 13.5149 16.5 13.5149C16.1338 13.5149 15.7759 13.4791 15.4298 13.4108C14.9436 13.315 14.7005 13.267 14.5532 13.2817C14.3965 13.2973 14.3193 13.3208 14.1805 13.3951C14.0499 13.4649 13.919 13.5959 13.657 13.8579L6.5 21.0149C5.67157 21.8433 4.32843 21.8433 3.5 21.0149C2.67157 20.1865 2.67157 18.8433 3.5 18.0149L10.657 10.8579C10.919 10.5959 11.0499 10.4649 11.1198 10.3344C11.1941 10.1956 11.2176 10.1184 11.2332 9.9617C11.2479 9.81435 11.1999 9.57128 11.1041 9.08513C11.0358 8.73895 11 8.3811 11 8.01489C11 4.97733 13.4624 2.51489 16.5 2.51489C17.5055 2.51489 18.448 2.78472 19.259 3.25591ZM12.0001 15.5148L17.5 21.0148C18.3284 21.8432 19.6716 21.8432 20.5 21.0148C21.3284 20.1864 21.3284 18.8432 20.5 18.0148L15.9753 13.4902C15.655 13.4599 15.3427 13.4021 15.0408 13.3192C14.6517 13.2124 14.2249 13.2899 13.9397 13.5752L12.0001 15.5148Z" stroke="#684688" stroke-width="2" stroke-linecap="round" stroke-linejoin="round"/>
</svg>
