<svg width="24" height="25" viewBox="0 0 24 25" fill="none" xmlns="http://www.w3.org/2000/svg">
<path d="M4.5 22.5149V17.5149M4.5 7.51489V2.51489M2 5.01489H7M2 20.0149H7M13 3.51489L11.2658 8.02375C10.9838 8.75698 10.8428 9.1236 10.6235 9.43198C10.4292 9.70529 10.1904 9.94408 9.91709 10.1384C9.60871 10.3577 9.24209 10.4987 8.50886 10.7807L4 12.5149L8.50886 14.2491C9.24209 14.5311 9.60871 14.6721 9.91709 14.8914C10.1904 15.0857 10.4292 15.3245 10.6235 15.5978C10.8428 15.9062 10.9838 16.2728 11.2658 17.006L13 21.5149L14.7342 17.006C15.0162 16.2728 15.1572 15.9062 15.3765 15.5978C15.5708 15.3245 15.8096 15.0857 16.0829 14.8914C16.3913 14.6721 16.7579 14.5311 17.4911 14.2491L22 12.5149L17.4911 10.7807C16.7579 10.4987 16.3913 10.3577 16.0829 10.1384C15.8096 9.94408 15.5708 9.70529 15.3765 9.43198C15.1572 9.1236 15.0162 8.75698 14.7342 8.02375L13 3.51489Z" stroke="#684688" stroke-width="2" stroke-linecap="round" stroke-linejoin="round"/>
</svg>
