<svg width="48" height="49" viewBox="0 0 48 49" fill="none" xmlns="http://www.w3.org/2000/svg">
<path d="M0 24.5149C0 11.2601 10.7452 0.514893 24 0.514893C37.2548 0.514893 48 11.2601 48 24.5149C48 37.7697 37.2548 48.5149 24 48.5149C10.7452 48.5149 0 37.7697 0 24.5149Z" fill="#EDDBFD"/>
<path d="M23.2827 15.9682C23.5131 15.5013 23.6284 15.2678 23.7848 15.1932C23.9209 15.1283 24.0791 15.1283 24.2152 15.1932C24.3717 15.2678 24.4869 15.5013 24.7174 15.9682L26.9041 20.3982C26.9721 20.536 27.0061 20.605 27.0558 20.6585C27.0999 20.7059 27.1527 20.7442 27.2113 20.7715C27.2776 20.8023 27.3536 20.8134 27.5057 20.8357L32.397 21.5506C32.9121 21.6259 33.1696 21.6635 33.2888 21.7893C33.3925 21.8988 33.4412 22.0492 33.4215 22.1987C33.3988 22.3705 33.2124 22.5521 32.8395 22.9153L29.3014 26.3613C29.1912 26.4687 29.136 26.5224 29.1004 26.5864C29.0689 26.6429 29.0487 26.7051 29.0409 26.7694C29.0321 26.842 29.0451 26.9179 29.0711 27.0696L29.906 31.937C29.994 32.4504 30.038 32.7071 29.9553 32.8594C29.8833 32.9919 29.7554 33.0849 29.6071 33.1124C29.4366 33.144 29.2061 33.0227 28.7451 32.7803L24.3724 30.4807C24.2361 30.4091 24.168 30.3733 24.0962 30.3592C24.0327 30.3467 23.9673 30.3467 23.9038 30.3592C23.832 30.3733 23.7639 30.4091 23.6277 30.4807L19.2549 32.7803C18.7939 33.0227 18.5634 33.144 18.393 33.1124C18.2447 33.0849 18.1167 32.9919 18.0447 32.8594C17.962 32.7071 18.006 32.4504 18.0941 31.937L18.9289 27.0696C18.9549 26.9179 18.9679 26.842 18.9591 26.7694C18.9513 26.7051 18.9311 26.6429 18.8996 26.5864C18.864 26.5224 18.8089 26.4687 18.6986 26.3613L15.1606 22.9153C14.7877 22.5521 14.6012 22.3705 14.5785 22.1987C14.5588 22.0492 14.6076 21.8988 14.7113 21.7893C14.8304 21.6635 15.088 21.6259 15.603 21.5506L20.4943 20.8357C20.6464 20.8134 20.7225 20.8023 20.7887 20.7715C20.8474 20.7442 20.9002 20.7059 20.9442 20.6585C20.9939 20.605 21.0279 20.536 21.096 20.3982L23.2827 15.9682Z" stroke="#684688" stroke-width="2" stroke-linecap="round" stroke-linejoin="round"/>
</svg>
