<svg xmlns="http://www.w3.org/2000/svg" width="166" height="117" viewBox="0 0 166 117" fill="none">
  <path d="M78.2386 42.4326H51.9956C50.5914 42.4326 49.4531 43.5709 49.4531 44.9751V71.2181C49.4531 72.6223 50.5914 73.7606 51.9956 73.7606H78.2386C79.6428 73.7606 80.7811 72.6223 80.7811 71.2181V44.9751C80.7811 43.5709 79.6428 42.4326 78.2386 42.4326Z" fill="white"/>
  <path d="M78.2604 74.667H52.0175C50.1328 74.667 48.5859 73.1202 48.5859 71.2355V44.9925C48.5859 43.1079 50.1328 41.561 52.0175 41.561H78.2604C80.1629 41.561 81.6919 43.1079 81.6919 44.9925V71.2355C81.6919 73.1202 80.1451 74.667 78.2604 74.667ZM52.0175 43.3212C51.1107 43.3212 50.3639 44.068 50.3639 44.9748V71.2178C50.3639 72.1245 51.1107 72.8713 52.0175 72.8713H78.2604C79.1672 72.8713 79.9139 72.1245 79.9139 71.2178V44.9748C79.9139 44.068 79.1672 43.3212 78.2604 43.3212H52.0175Z" fill="#CD6BEF"/>
  <path d="M114.344 42.4326H88.1011C86.6969 42.4326 85.5586 43.5709 85.5586 44.9751V71.2181C85.5586 72.6223 86.6969 73.7606 88.1011 73.7606H114.344C115.748 73.7606 116.887 72.6223 116.887 71.2181V44.9751C116.887 43.5709 115.748 42.4326 114.344 42.4326Z" fill="white"/>
  <path d="M114.342 74.667H88.0995C86.197 74.667 84.668 73.1202 84.668 71.2355V44.9925C84.668 43.1079 86.2148 41.561 88.0995 41.561H114.342C116.245 41.561 117.774 43.1079 117.774 44.9925V71.2355C117.774 73.1202 116.227 74.667 114.342 74.667ZM88.0995 43.3212C87.1927 43.3212 86.4459 44.068 86.4459 44.9748V71.2178C86.4459 72.1245 87.1927 72.8713 88.0995 72.8713H114.342C115.249 72.8713 115.996 72.1245 115.996 71.2178V44.9748C115.996 44.068 115.249 43.3212 114.342 43.3212H88.0995Z" fill="#2BEEEE"/>
  <path d="M96.2894 5.69971H70.0464C68.6422 5.69971 67.5039 6.83803 67.5039 8.24222V34.4852C67.5039 35.8894 68.6422 37.0277 70.0464 37.0277H96.2894C97.6936 37.0277 98.8319 35.8894 98.8319 34.4852V8.24222C98.8319 6.83803 97.6936 5.69971 96.2894 5.69971Z" fill="white"/>
  <path d="M96.2878 37.9165H70.0448C68.1423 37.9165 66.6133 36.3697 66.6133 34.485V8.24205C66.6133 6.35739 68.1601 4.81055 70.0448 4.81055H96.2878C98.1724 4.81055 99.7193 6.35739 99.7193 8.24205V34.485C99.7193 36.3697 98.1724 37.9165 96.2878 37.9165ZM70.0448 6.58853C69.138 6.58853 68.3913 7.33528 68.3913 8.24205V34.485C68.3913 35.3918 69.138 36.1386 70.0448 36.1386H96.2878C97.1945 36.1386 97.9413 35.3918 97.9413 34.485V8.24205C97.9413 7.33528 97.1945 6.58853 96.2878 6.58853H70.0448Z" fill="#003FCC"/>
  <path d="M60.2152 79.5938H33.9722C32.568 79.5938 31.4297 80.7321 31.4297 82.1363V108.379C31.4297 109.783 32.568 110.922 33.9722 110.922H60.2152C61.6194 110.922 62.7577 109.783 62.7577 108.379V82.1363C62.7577 80.7321 61.6194 79.5938 60.2152 79.5938Z" fill="white"/>
  <path d="M60.2175 111.828H33.9745C32.072 111.828 30.543 110.281 30.543 108.396V82.1532C30.543 80.2685 32.0898 78.7217 33.9745 78.7217H60.2175C62.1199 78.7217 63.649 80.2685 63.649 82.1532V108.396C63.649 110.281 62.1021 111.828 60.2175 111.828ZM33.9745 80.4819C33.0677 80.4819 32.3209 81.2286 32.3209 82.1354V108.378C32.3209 109.285 33.0677 110.032 33.9745 110.032H60.2175C61.1242 110.032 61.871 109.285 61.871 108.378V82.1354C61.871 81.2286 61.1242 80.4819 60.2175 80.4819H33.9745Z" fill="#2BEEEE"/>
  <path d="M96.2894 79.5938H70.0464C68.6422 79.5938 67.5039 80.7321 67.5039 82.1363V108.379C67.5039 109.783 68.6422 110.922 70.0464 110.922H96.2894C97.6936 110.922 98.8319 109.783 98.8319 108.379V82.1363C98.8319 80.7321 97.6936 79.5938 96.2894 79.5938Z" fill="white"/>
  <path d="M96.2878 111.828H70.0448C68.1423 111.828 66.6133 110.281 66.6133 108.396V82.1532C66.6133 80.2685 68.1601 78.7217 70.0448 78.7217H96.2878C98.1724 78.7217 99.7193 80.2685 99.7193 82.1532V108.396C99.7193 110.281 98.1724 111.828 96.2878 111.828ZM70.0448 80.4819C69.138 80.4819 68.3913 81.2286 68.3913 82.1354V108.378C68.3913 109.285 69.138 110.032 70.0448 110.032H96.2878C97.1945 110.032 97.9413 109.285 97.9413 108.378V82.1354C97.9413 81.2286 97.1945 80.4819 96.2878 80.4819H70.0448Z" fill="#FF50BF"/>
  <path d="M132.364 79.5938H106.121C104.716 79.5938 103.578 80.7321 103.578 82.1363V108.379C103.578 109.783 104.716 110.922 106.121 110.922H132.364C133.768 110.922 134.906 109.783 134.906 108.379V82.1363C134.906 80.7321 133.768 79.5938 132.364 79.5938Z" fill="white"/>
  <path d="M132.362 111.828H106.119C104.234 111.828 102.688 110.281 102.688 108.396V82.1532C102.688 80.2685 104.234 78.7217 106.119 78.7217H132.362C134.264 78.7217 135.793 80.2685 135.793 82.1532V108.396C135.793 110.281 134.247 111.828 132.362 111.828ZM106.119 80.4819C105.212 80.4819 104.465 81.2286 104.465 82.1354V108.378C104.465 109.285 105.212 110.032 106.119 110.032H132.362C133.269 110.032 134.016 109.285 134.016 108.378V82.1354C134.016 81.2286 133.269 80.4819 132.362 80.4819H106.119Z" fill="#003FCC"/>
</svg>