<svg xmlns="http://www.w3.org/2000/svg" width="170" height="118" viewBox="0 0 170 118" fill="none">
  <path d="M59.7462 42.2542L31.3916 52.7822C29.8744 53.3456 29.1012 55.0322 29.6645 56.5493L40.1926 84.904C40.756 86.4211 42.4425 87.1944 43.9597 86.6311L72.3143 76.103C73.8315 75.5396 74.6048 73.853 74.0414 72.3359L63.5133 43.9813C62.95 42.4641 61.2634 41.6908 59.7462 42.2542Z" fill="white"/>
  <path d="M42.9537 87.8462C41.3348 87.8462 39.8389 86.8626 39.2447 85.2642L28.7118 56.9034C28.343 55.9198 28.3839 54.8337 28.8143 53.8706C29.2446 52.9075 30.0438 52.1698 31.0274 51.8009L59.3882 41.2681C61.4374 40.5099 63.712 41.555 64.4702 43.6042L75.0031 71.965C75.3719 72.9486 75.3309 74.0347 74.9006 74.9978C74.4703 75.9609 73.6711 76.6986 72.6875 77.0675L44.3267 87.6003C43.8758 87.7643 43.4045 87.8462 42.9537 87.8462ZM60.7817 43.0919C60.5563 43.0919 60.3308 43.1328 60.1259 43.2148L31.7651 53.7477C31.2938 53.9321 30.9045 54.2805 30.6995 54.7313C30.4946 55.1821 30.4741 55.7149 30.6381 56.1862L41.1709 84.547C41.5398 85.5306 42.6463 86.0429 43.6299 85.6741L71.9907 75.1412C72.4621 74.9568 72.8514 74.6084 73.0563 74.1371C73.2613 73.6658 73.2817 73.1535 73.1178 72.6822L62.585 44.3214C62.2981 43.5632 61.5604 43.0714 60.8022 43.0714L60.7817 43.0919Z" fill="#2BEEEE"/>
  <path d="M105.347 52.4219L75.1164 53.3825C73.4988 53.4339 72.2292 54.7869 72.2806 56.4045L73.2412 86.6353C73.2926 88.2528 74.6455 89.5225 76.2631 89.4711L106.494 88.5105C108.111 88.4591 109.381 87.1061 109.33 85.4885L108.369 55.2577C108.318 53.6401 106.965 52.3705 105.347 52.4219Z" fill="white"/>
  <path d="M76.1892 90.5116C74.058 90.5116 72.2957 88.8107 72.2343 86.6796L71.2711 56.454C71.2097 54.2818 72.931 52.4376 75.1031 52.3761L105.329 51.413C107.542 51.331 109.345 53.0523 109.407 55.245L110.37 85.4705C110.411 86.5361 110.021 87.5402 109.304 88.2984C108.587 89.0566 107.603 89.5074 106.538 89.5484L76.3121 90.5116C76.3121 90.5116 76.2302 90.5116 76.1892 90.5116ZM105.452 53.4417C105.452 53.4417 105.411 53.4417 105.39 53.4417L75.1646 54.4048C74.1195 54.4458 73.2793 55.3269 73.3203 56.372L74.2834 86.5976C74.3244 87.6427 75.2875 88.4419 76.2507 88.4419L106.476 87.4788C106.989 87.4788 107.46 87.2533 107.808 86.8845C108.157 86.5156 108.341 86.0238 108.321 85.5115L107.357 55.286C107.316 54.2614 106.476 53.4417 105.452 53.4417Z" fill="#CD6BEF"/>
  <path d="M33.8964 37.2659L3.87 40.9048C2.26337 41.0995 1.11878 42.5598 1.31349 44.1664L4.95239 74.1928C5.1471 75.7994 6.60738 76.944 8.21401 76.7493L38.2404 73.1104C39.847 72.9156 40.9916 71.4554 40.7969 69.8487L37.158 39.8224C36.9633 38.2157 35.503 37.0712 33.8964 37.2659Z" fill="white"/>
  <path d="M7.83044 77.7856C6.94928 77.7856 6.10911 77.4987 5.39189 76.9455C4.55172 76.2897 4.03943 75.3471 3.89599 74.302L0.248423 44.2813C-0.0179723 42.1092 1.53942 40.142 3.71156 39.8756L33.7322 36.2485C34.7773 36.1256 35.8224 36.4124 36.6421 37.0682C37.4822 37.7239 37.9945 38.6665 38.1175 39.7116L41.7651 69.7323C42.0314 71.9044 40.4741 73.8717 38.3224 74.1381L8.30175 77.7651C8.13781 77.7651 7.97387 77.7856 7.80994 77.7856H7.83044ZM34.2445 38.2567C34.2445 38.2567 34.0806 38.2567 34.0191 38.2567L3.99844 41.8838C2.95336 42.0067 2.19516 42.9699 2.3386 44.0149L5.98616 74.0356C6.04764 74.5479 6.29354 74.9987 6.70338 75.3061C7.11322 75.6135 7.60502 75.7569 8.11732 75.6955L38.138 72.0684C39.1831 71.9454 39.9413 70.9823 39.7978 69.9372L36.1503 39.9166C36.0888 39.4043 35.8429 38.9534 35.433 38.6461C35.0847 38.3797 34.6749 38.2362 34.265 38.2362L34.2445 38.2567Z" fill="#003FCC"/>
  <path d="M131.299 49.2834L103.587 61.4021C102.104 62.0505 101.428 63.7782 102.076 65.261L114.195 92.9732C114.844 94.456 116.571 95.1324 118.054 94.4839L145.766 82.3653C147.249 81.7168 147.925 79.9891 147.277 78.5063L135.158 50.7942C134.51 49.3114 132.782 48.635 131.299 49.2834Z" fill="white"/>
  <path d="M116.885 95.7582C115.368 95.7582 113.893 94.877 113.257 93.3811L101.147 65.6761C100.266 63.6678 101.188 61.3318 103.196 60.4711L130.901 48.3604C131.864 47.93 132.95 47.9095 133.934 48.2989C134.917 48.6882 135.696 49.4259 136.126 50.3891L148.237 78.0942C148.667 79.0573 148.688 80.1433 148.299 81.1269C147.909 82.1106 147.172 82.8893 146.208 83.3196L118.503 95.4303C117.991 95.6557 117.458 95.7582 116.925 95.7582H116.885ZM132.479 50.0612C132.212 50.0612 131.967 50.1227 131.721 50.2251L104.016 62.3359C103.052 62.7662 102.602 63.8933 103.032 64.8564L115.143 92.5614C115.573 93.5246 116.68 93.9549 117.663 93.5451L145.368 81.4343C145.84 81.2294 146.188 80.8606 146.372 80.3893C146.557 79.9179 146.557 79.4056 146.352 78.9343L134.241 51.2292C134.036 50.7579 133.667 50.4096 133.196 50.2251C132.971 50.1432 132.745 50.1022 132.499 50.1022L132.479 50.0612Z" fill="#2BEEEE"/>
  <path d="M88.2202 24.1493L58.6144 30.3397C57.0303 30.6709 56.0146 32.2236 56.3458 33.8078L62.5362 63.4136C62.8674 64.9977 64.4201 66.0134 66.0043 65.6822L95.6101 59.4918C97.1942 59.1606 98.2099 57.6079 97.8787 56.0237L91.6883 26.4179C91.3571 24.8338 89.8044 23.8181 88.2202 24.1493Z" fill="white"/>
  <path d="M65.3933 66.7612C63.5695 66.7612 61.9097 65.4702 61.5203 63.6055L55.3318 33.9946C54.8809 31.8635 56.2539 29.7528 58.4055 29.302L88.0164 23.1134C89.0615 22.888 90.1066 23.1134 90.9877 23.6667C91.8689 24.2405 92.4836 25.1421 92.6885 26.1667L98.8771 55.7775C99.1025 56.8226 98.8771 57.8677 98.3238 58.7489C97.75 59.63 96.8484 60.2448 95.8238 60.4497L66.213 66.6382C65.9466 66.6997 65.6597 66.7202 65.3933 66.7202V66.7612ZM88.8155 25.1011C88.6926 25.1011 88.5492 25.1011 88.4262 25.1421L58.8154 31.3307C57.7908 31.5356 57.1146 32.5602 57.34 33.5848L63.5285 63.1956C63.7334 64.2202 64.7375 64.8759 65.7826 64.671L95.3935 58.4825C95.8853 58.38 96.3156 58.0931 96.6025 57.6628C96.8894 57.2325 96.9713 56.7202 96.8689 56.2284L90.6803 26.6175C90.5779 26.1257 90.291 25.6954 89.8606 25.4085C89.5533 25.2036 89.1844 25.1011 88.8155 25.1011Z" fill="#FF50BF"/>
  <path d="M166.545 33.1053L138.11 22.7953C136.589 22.2436 134.908 23.0298 134.357 24.5512L124.047 52.9859C123.495 54.5073 124.281 56.1879 125.803 56.7396L154.237 67.0496C155.759 67.6013 157.439 66.8151 157.991 65.2936L168.301 36.859C168.853 35.3376 168.066 33.657 166.545 33.1053Z" fill="white"/>
  <path d="M155.25 68.237C154.799 68.237 154.348 68.155 153.897 67.9911L125.455 57.6836C123.406 56.9459 122.34 54.6713 123.078 52.6221L133.385 24.1793C134.123 22.1301 136.397 21.0645 138.447 21.8023L166.889 32.1097C168.939 32.8474 170.004 35.122 169.266 37.1712L158.959 65.614C158.385 67.2123 156.848 68.2165 155.229 68.2165L155.25 68.237ZM154.594 66.0853C155.598 66.4542 156.684 65.9214 157.033 64.9378L167.34 36.495C167.504 36.0236 167.484 35.4909 167.279 35.04C167.053 34.5687 166.684 34.2204 166.193 34.0564L137.75 23.749C136.746 23.3801 135.66 23.9129 135.311 24.8965L125.004 53.3393C124.84 53.8106 124.86 54.3434 125.065 54.7942C125.291 55.2656 125.66 55.6139 126.151 55.7779L154.594 66.0853Z" fill="#003FCC"/>
</svg>