<svg width="266" height="117" viewBox="0 0 266 117" fill="none" xmlns="http://www.w3.org/2000/svg">
<path d="M37.5624 38.5713H5.04492C3.305 38.5713 1.89453 39.9818 1.89453 41.7217V74.2391C1.89453 75.979 3.305 77.3895 5.04492 77.3895H37.5624C39.3023 77.3895 40.7128 75.979 40.7128 74.2391V41.7217C40.7128 39.9818 39.3023 38.5713 37.5624 38.5713Z" fill="white"/>
<path d="M37.5858 78.491H5.06836C2.71107 78.491 0.816406 76.5744 0.816406 74.2391V41.7217C0.816406 39.3864 2.7331 37.4697 5.06836 37.4697H37.5858C39.9431 37.4697 41.8377 39.3864 41.8377 41.7217V74.2391C41.8377 76.5744 39.9211 78.491 37.5858 78.491ZM5.06836 39.6728C3.94479 39.6728 3.01948 40.5981 3.01948 41.7217V74.2391C3.01948 75.3627 3.94479 76.288 5.06836 76.288H37.5858C38.7094 76.288 39.6346 75.3627 39.6346 74.2391V41.7217C39.6346 40.5981 38.7094 39.6728 37.5858 39.6728H5.06836Z" fill="#2BEEEE"/>
<path d="M23.8327 50.7157V61.627H22.5114V52.1009H22.4474L19.7836 53.8697V52.5271L22.5114 50.7157H23.8327Z" fill="#2BEEEE"/>
<path d="M82.285 38.5713H49.7676C48.0277 38.5713 46.6172 39.9818 46.6172 41.7217V74.2391C46.6172 75.979 48.0277 77.3895 49.7676 77.3895H82.285C84.025 77.3895 85.4355 75.979 85.4355 74.2391V41.7217C85.4355 39.9818 84.025 38.5713 82.285 38.5713Z" fill="white"/>
<path d="M82.285 78.491H49.7676C47.4103 78.491 45.5156 76.5744 45.5156 74.2391V41.7217C45.5156 39.3864 47.4323 37.4697 49.7676 37.4697H82.285C84.6423 37.4697 86.537 39.3864 86.537 41.7217V74.2391C86.537 76.5744 84.6203 78.491 82.285 78.491ZM49.7676 39.6728C48.644 39.6728 47.7187 40.5981 47.7187 41.7217V74.2391C47.7187 75.3627 48.644 76.288 49.7676 76.288H82.285C83.4086 76.288 84.3339 75.3627 84.3339 74.2391V41.7217C84.3339 40.5981 83.4086 39.6728 82.285 39.6728H49.7676Z" fill="#FF50BF"/>
<path d="M63.4928 61.627V60.668L67.0943 56.7254C67.517 56.2637 67.8651 55.8623 68.1386 55.5213C68.4121 55.1768 68.6145 54.8536 68.7459 54.5517C68.8809 54.2462 68.9484 53.9266 68.9484 53.5927C68.9484 53.2091 68.856 52.877 68.6713 52.5964C68.4902 52.3158 68.2416 52.0991 67.9255 51.9464C67.6093 51.7937 67.2542 51.7173 66.8599 51.7173C66.4408 51.7173 66.075 51.8043 65.7624 51.9784C65.4534 52.1489 65.2136 52.3886 65.0431 52.6976C64.8762 53.0066 64.7927 53.3689 64.7927 53.7845H63.5354C63.5354 53.1452 63.6828 52.584 63.9776 52.1009C64.2724 51.6179 64.6738 51.2414 65.1817 50.9714C65.6931 50.7015 66.2668 50.5665 66.9025 50.5665C67.5419 50.5665 68.1084 50.7015 68.6021 50.9714C69.0958 51.2414 69.4829 51.6054 69.7635 52.0636C70.0441 52.5218 70.1844 53.0315 70.1844 53.5927C70.1844 53.9941 70.1116 54.3865 69.966 54.7701C69.8239 55.1502 69.5753 55.5746 69.2201 56.0435C68.8685 56.5088 68.3801 57.077 67.755 57.7483L65.3042 60.3696V60.4548H70.3762V61.627H63.4928Z" fill="#FF50BF"/>
<path d="M126.984 38.5713H94.4668C92.7269 38.5713 91.3164 39.9818 91.3164 41.7217V74.2391C91.3164 75.979 92.7269 77.3895 94.4668 77.3895H126.984C128.724 77.3895 130.135 75.979 130.135 74.2391V41.7217C130.135 39.9818 128.724 38.5713 126.984 38.5713Z" fill="white"/>
<path d="M126.984 78.491H94.4668C92.1315 78.491 90.2148 76.5744 90.2148 74.2391V41.7217C90.2148 39.3864 92.1315 37.4697 94.4668 37.4697H126.984C129.342 37.4697 131.236 39.3864 131.236 41.7217V74.2391C131.236 76.5744 129.319 78.491 126.984 78.491ZM94.4668 39.6728C93.3432 39.6728 92.4179 40.5981 92.4179 41.7217V74.2391C92.4179 75.3627 93.3432 76.288 94.4668 76.288H126.984C128.108 76.288 129.033 75.3627 129.033 74.2391V41.7217C129.033 40.5981 128.108 39.6728 126.984 39.6728H94.4668Z" fill="#2BEEEE"/>
<path d="M111.754 61.7761C111.051 61.7761 110.424 61.6554 109.873 61.4138C109.326 61.1723 108.891 60.8367 108.568 60.4069C108.248 59.9736 108.074 59.471 108.046 58.8991H109.388C109.417 59.2508 109.537 59.5545 109.751 59.8102C109.964 60.0624 110.242 60.2577 110.587 60.3962C110.932 60.5348 111.313 60.604 111.732 60.604C112.201 60.604 112.617 60.5223 112.979 60.3589C113.341 60.1956 113.626 59.9682 113.832 59.677C114.038 59.3857 114.141 59.0483 114.141 58.6647C114.141 58.2634 114.041 57.91 113.842 57.6045C113.643 57.2955 113.352 57.054 112.969 56.8799C112.585 56.7059 112.116 56.6189 111.562 56.6189H110.688V55.4468H111.562C111.995 55.4468 112.375 55.3686 112.702 55.2123C113.032 55.0561 113.29 54.8358 113.475 54.5517C113.663 54.2675 113.757 53.9337 113.757 53.5501C113.757 53.1807 113.675 52.8592 113.512 52.5857C113.349 52.3123 113.118 52.0991 112.819 51.9464C112.525 51.7937 112.176 51.7173 111.775 51.7173C111.399 51.7173 111.043 51.7866 110.71 51.9251C110.379 52.0601 110.109 52.2572 109.9 52.5165C109.69 52.7722 109.577 53.0812 109.559 53.4435H108.28C108.301 52.8717 108.474 52.3709 108.797 51.9411C109.12 51.5078 109.543 51.1703 110.065 50.9288C110.591 50.6873 111.168 50.5665 111.796 50.5665C112.471 50.5665 113.05 50.7033 113.533 50.9768C114.016 51.2467 114.387 51.6037 114.647 52.0476C114.906 52.4916 115.036 52.9711 115.036 53.4861C115.036 54.1006 114.874 54.6245 114.551 55.0578C114.231 55.4912 113.796 55.7913 113.246 55.9582V56.0435C113.935 56.1571 114.473 56.4501 114.86 56.9225C115.247 57.3914 115.441 57.9721 115.441 58.6647C115.441 59.2579 115.279 59.7907 114.956 60.263C114.636 60.7319 114.199 61.1013 113.645 61.3712C113.091 61.6412 112.461 61.7761 111.754 61.7761Z" fill="#2BEEEE"/>
<path d="M171.691 38.5713H139.174C137.434 38.5713 136.023 39.9818 136.023 41.7217V74.2391C136.023 75.979 137.434 77.3895 139.174 77.3895H171.691C173.431 77.3895 174.842 75.979 174.842 74.2391V41.7217C174.842 39.9818 173.431 38.5713 171.691 38.5713Z" fill="white"/>
<path d="M171.691 78.491H139.174C136.817 78.491 134.922 76.5744 134.922 74.2391V41.7217C134.922 39.3864 136.839 37.4697 139.174 37.4697H171.691C174.049 37.4697 175.943 39.3864 175.943 41.7217V74.2391C175.943 76.5744 174.027 78.491 171.691 78.491ZM139.174 39.6728C138.05 39.6728 137.125 40.5981 137.125 41.7217V74.2391C137.125 75.3627 138.05 76.288 139.174 76.288H171.691C172.815 76.288 173.74 75.3627 173.74 74.2391V41.7217C173.74 40.5981 172.815 39.6728 171.691 39.6728H139.174Z" fill="#003FCC"/>
<path d="M152.315 59.3893V58.3024L157.11 50.7157H157.899V52.3993H157.366L153.743 58.1319V58.2172H160.2V59.3893H152.315ZM157.451 61.627V59.059V58.5528V50.7157H158.708V61.627H157.451Z" fill="#003FCC"/>
<path d="M216.387 38.5718H183.869C182.129 38.5718 180.719 39.9822 180.719 41.7222V74.2396C180.719 75.9795 182.129 77.39 183.869 77.39H216.387C218.126 77.39 219.537 75.9795 219.537 74.2396V41.7222C219.537 39.9822 218.126 38.5718 216.387 38.5718Z" fill="white"/>
<path d="M216.418 78.4915H183.9C181.565 78.4915 179.648 76.5748 179.648 74.2396V41.7221C179.648 39.3869 181.565 37.4702 183.9 37.4702H216.418C218.753 37.4702 220.67 39.3869 220.67 41.7221V74.2396C220.67 76.5748 218.753 78.4915 216.418 78.4915ZM183.878 39.6733C182.755 39.6733 181.829 40.5986 181.829 41.7221V74.2396C181.829 75.3632 182.755 76.2884 183.878 76.2884H216.396C217.519 76.2884 218.445 75.3632 218.445 74.2396V41.7221C218.445 40.5986 217.519 39.6733 216.396 39.6733H183.878Z" fill="#CD6BEF"/>
<path d="M200.953 61.7761C200.328 61.7761 199.765 61.6518 199.264 61.4032C198.764 61.1546 198.362 60.8136 198.06 60.3803C197.758 59.9469 197.593 59.4532 197.565 58.8991H198.844C198.893 59.3928 199.117 59.8013 199.515 60.1245C199.916 60.4442 200.396 60.604 200.953 60.604C201.401 60.604 201.799 60.4992 202.147 60.2897C202.498 60.0801 202.774 59.7924 202.973 59.4266C203.175 59.0572 203.276 58.6399 203.276 58.1746C203.276 57.6986 203.171 57.2742 202.962 56.9012C202.756 56.5247 202.472 56.2282 202.109 56.0115C201.747 55.7948 201.333 55.6847 200.868 55.6812C200.534 55.6776 200.191 55.7291 199.84 55.8357C199.488 55.9387 199.199 56.0719 198.971 56.2353L197.735 56.0861L198.396 50.7157H204.065V51.8878H199.504L199.121 55.1058H199.184C199.408 54.9282 199.689 54.7808 200.026 54.6636C200.364 54.5464 200.715 54.4878 201.081 54.4878C201.749 54.4878 202.344 54.6476 202.866 54.9673C203.392 55.2834 203.804 55.7167 204.102 56.2672C204.404 56.8178 204.555 57.4464 204.555 58.1533C204.555 58.8494 204.399 59.471 204.086 60.018C203.777 60.5614 203.351 60.9912 202.807 61.3073C202.264 61.6198 201.646 61.7761 200.953 61.7761Z" fill="#CD6BEF"/>
<path d="M261.484 38.5718H228.967C227.227 38.5718 225.816 39.9822 225.816 41.7222V74.2396C225.816 75.9795 227.227 77.39 228.967 77.39H261.484C263.224 77.39 264.635 75.9795 264.635 74.2396V41.7222C264.635 39.9822 263.224 38.5718 261.484 38.5718Z" fill="white"/>
<path d="M261.508 78.4915H228.99C226.655 78.4915 224.738 76.5748 224.738 74.2396V41.7221C224.738 39.3869 226.655 37.4702 228.99 37.4702H261.508C263.865 37.4702 265.76 39.3869 265.76 41.7221V74.2396C265.76 76.5748 263.843 78.4915 261.508 78.4915ZM228.968 39.6733C227.845 39.6733 226.919 40.5986 226.919 41.7221V74.2396C226.919 75.3632 227.845 76.2884 228.968 76.2884H261.486C262.609 76.2884 263.535 75.3632 263.535 74.2396V41.7221C263.535 40.5986 262.609 39.6733 261.486 39.6733H228.968Z" fill="#003FCC"/>
<path d="M245.987 61.7761C245.539 61.769 245.092 61.6838 244.644 61.5204C244.197 61.357 243.788 61.0817 243.419 60.6946C243.049 60.3039 242.753 59.7764 242.529 59.1123C242.305 58.4445 242.193 57.6063 242.193 56.5976C242.193 55.6315 242.284 54.7755 242.465 54.0296C242.646 53.2801 242.909 52.6497 243.254 52.1382C243.598 51.6232 244.014 51.2325 244.5 50.9661C244.99 50.6997 245.543 50.5665 246.157 50.5665C246.768 50.5665 247.312 50.6891 247.788 50.9341C248.267 51.1757 248.658 51.5131 248.96 51.9464C249.262 52.3797 249.457 52.8788 249.546 53.4435H248.246C248.125 52.9534 247.891 52.5467 247.542 52.2235C247.194 51.9002 246.733 51.7386 246.157 51.7386C245.312 51.7386 244.646 52.1063 244.159 52.8415C243.676 53.5767 243.433 54.6085 243.429 55.9369H243.515C243.714 55.635 243.95 55.3775 244.223 55.1644C244.5 54.9477 244.806 54.7808 245.14 54.6636C245.473 54.5464 245.827 54.4878 246.2 54.4878C246.825 54.4878 247.397 54.644 247.915 54.9566C248.434 55.2656 248.85 55.6936 249.162 56.2406C249.475 56.784 249.631 57.4074 249.631 58.1106C249.631 58.7855 249.48 59.4035 249.178 59.9647C248.876 60.5223 248.452 60.9663 247.905 61.2966C247.361 61.6234 246.722 61.7832 245.987 61.7761ZM245.987 60.604C246.434 60.604 246.836 60.4921 247.191 60.2684C247.55 60.0446 247.832 59.7445 248.038 59.368C248.247 58.9915 248.352 58.5724 248.352 58.1106C248.352 57.6596 248.251 57.2493 248.049 56.8799C247.85 56.507 247.574 56.2104 247.223 55.9902C246.875 55.77 246.477 55.6599 246.029 55.6599C245.692 55.6599 245.378 55.7274 245.086 55.8623C244.795 55.9937 244.539 56.1749 244.319 56.4058C244.102 56.6366 243.932 56.9012 243.808 57.1996C243.683 57.4944 243.621 57.8052 243.621 58.1319C243.621 58.5653 243.722 58.9702 243.925 59.3467C244.131 59.7232 244.411 60.0269 244.767 60.2577C245.125 60.4886 245.532 60.604 245.987 60.604Z" fill="#003FCC"/>
</svg>
