<svg xmlns="http://www.w3.org/2000/svg" width="200" height="116" viewBox="0 0 200 116" fill="none">
  <path d="M93.5191 43.6509H72.3099C70.4193 43.6509 68.8867 45.1835 68.8867 47.074V68.2833C68.8867 70.1738 70.4193 71.7064 72.3099 71.7064H93.5191C95.4096 71.7064 96.9423 70.1738 96.9423 68.2833V47.074C96.9423 45.1835 95.4096 43.6509 93.5191 43.6509Z" fill="white"/>
  <path d="M93.518 72.5921H72.3328C69.939 72.5921 68 70.6531 68 68.2593V47.074C68 44.6802 69.939 42.7412 72.3328 42.7412H93.518C95.9119 42.7412 97.8508 44.6802 97.8508 47.074V68.2593C97.8508 70.6531 95.9119 72.5921 93.518 72.5921ZM72.3328 44.5605C70.9444 44.5605 69.7954 45.6856 69.7954 47.098V68.2832C69.7954 69.6717 70.9205 70.8207 72.3328 70.8207H93.518C94.9065 70.8207 96.0555 69.6956 96.0555 68.2832V47.098C96.0555 45.7095 94.9304 44.5605 93.518 44.5605H72.3328Z" fill="#CD6BEF"/>
  <path d="M125.808 43.6509H104.599C102.708 43.6509 101.176 45.1835 101.176 47.074V68.2833C101.176 70.1738 102.708 71.7064 104.599 71.7064H125.808C127.699 71.7064 129.231 70.1738 129.231 68.2833V47.074C129.231 45.1835 127.699 43.6509 125.808 43.6509Z" fill="white"/>
  <path d="M125.807 72.5921H104.622C102.228 72.5921 100.289 70.6531 100.289 68.2593V47.074C100.289 44.6802 102.228 42.7412 104.622 42.7412H125.807C128.201 42.7412 130.14 44.6802 130.14 47.074V68.2593C130.14 70.6531 128.201 72.5921 125.807 72.5921ZM104.622 44.5605C103.233 44.5605 102.084 45.6856 102.084 47.098V68.2832C102.084 69.6717 103.21 70.8207 104.622 70.8207H125.807C127.196 70.8207 128.345 69.6956 128.345 68.2832V47.098C128.345 45.7095 127.22 44.5605 125.807 44.5605H104.622Z" fill="#2BEEEE"/>
  <path d="M109.671 10.7593H88.4622C86.5716 10.7593 85.0391 12.2919 85.0391 14.1824V35.3917C85.0391 37.2822 86.5716 38.8148 88.4622 38.8148H109.671C111.562 38.8148 113.095 37.2822 113.095 35.3917V14.1824C113.095 12.2919 111.562 10.7593 109.671 10.7593Z" fill="white"/>
  <path d="M109.647 39.701H88.4617C86.0679 39.701 84.1289 37.762 84.1289 35.3682V14.1829C84.1289 11.7891 86.0679 9.8501 88.4617 9.8501H109.647C112.041 9.8501 113.98 11.7891 113.98 14.1829V35.3682C113.98 37.762 112.041 39.701 109.647 39.701ZM88.4617 11.6694C87.0733 11.6694 85.9243 12.7945 85.9243 14.2069V35.3922C85.9243 36.7806 87.0494 37.9296 88.4617 37.9296H109.647C111.036 37.9296 112.185 36.8045 112.185 35.3922V14.2069C112.185 12.8184 111.059 11.6694 109.647 11.6694H88.4617Z" fill="#003FCC"/>
  <path d="M77.3785 76.9238H56.1692C54.2787 76.9238 52.7461 78.4564 52.7461 80.347V101.556C52.7461 103.447 54.2787 104.979 56.1692 104.979H77.3785C79.2691 104.979 80.8016 103.447 80.8016 101.556V80.347C80.8016 78.4564 79.2691 76.9238 77.3785 76.9238Z" fill="white"/>
  <path d="M77.358 105.865H56.1726C53.7788 105.865 51.8398 103.926 51.8398 101.532V80.347C51.8398 77.9531 53.7788 76.0142 56.1726 76.0142H77.358C79.7518 76.0142 81.6908 77.9531 81.6908 80.347V101.532C81.6908 103.926 79.7518 105.865 77.358 105.865ZM56.1726 77.8095C54.7842 77.8095 53.6352 78.9346 53.6352 80.347V101.532C53.6352 102.921 54.7603 104.07 56.1726 104.07H77.358C78.7464 104.07 79.8954 102.945 79.8954 101.532V80.347C79.8954 78.9586 78.7703 77.8095 77.358 77.8095H56.1726Z" fill="#2BEEEE"/>
  <path d="M109.671 76.9238H88.4622C86.5716 76.9238 85.0391 78.4564 85.0391 80.347V101.556C85.0391 103.447 86.5716 104.979 88.4622 104.979H109.671C111.562 104.979 113.095 103.447 113.095 101.556V80.347C113.095 78.4564 111.562 76.9238 109.671 76.9238Z" fill="white"/>
  <path d="M109.647 105.865H88.4617C86.0679 105.865 84.1289 103.926 84.1289 101.532V80.347C84.1289 77.9531 86.0679 76.0142 88.4617 76.0142H109.647C112.041 76.0142 113.98 77.9531 113.98 80.347V101.532C113.98 103.926 112.041 105.865 109.647 105.865ZM88.4617 77.8095C87.0733 77.8095 85.9243 78.9346 85.9243 80.347V101.532C85.9243 102.921 87.0494 104.07 88.4617 104.07H109.647C111.036 104.07 112.185 102.945 112.185 101.532V80.347C112.185 78.9586 111.059 77.8095 109.647 77.8095H88.4617Z" fill="#FF50BF"/>
  <path d="M141.965 76.9238H120.755C118.865 76.9238 117.332 78.4564 117.332 80.347V101.556C117.332 103.447 118.865 104.979 120.755 104.979H141.965C143.855 104.979 145.388 103.447 145.388 101.556V80.347C145.388 78.4564 143.855 76.9238 141.965 76.9238Z" fill="white"/>
  <path d="M141.963 105.865H120.778C118.384 105.865 116.445 103.926 116.445 101.532V80.347C116.445 77.9531 118.384 76.0142 120.778 76.0142H141.963C144.357 76.0142 146.296 77.9531 146.296 80.347V101.532C146.296 103.926 144.357 105.865 141.963 105.865ZM120.754 77.8095C119.366 77.8095 118.217 78.9346 118.217 80.347V101.532C118.217 102.921 119.342 104.07 120.754 104.07H141.94C143.328 104.07 144.477 102.945 144.477 101.532V80.347C144.477 78.9586 143.352 77.8095 141.94 77.8095H120.754Z" fill="#003FCC"/>
  <path fill-rule="evenodd" clip-rule="evenodd" d="M133.825 54.5673L129.516 55.6446C116.422 58.9241 105.554 68.0445 100.048 80.3966L97.7982 85.4476C96.8407 87.626 97.4869 90.1874 99.3781 91.6236C101.269 93.0839 103.902 93.036 105.77 91.5518C114.483 84.3943 124.896 78.5773 133.825 79.4391V89.4453C133.825 91.5039 135.046 93.3472 136.913 94.1611C138.78 94.9989 140.983 94.6159 142.491 93.2514C149.241 87.0515 162.072 75.2978 167.075 70.7256C168.153 69.7441 168.751 68.3797 168.751 66.9194C168.751 65.4592 168.153 64.0947 167.075 63.1133C162.072 58.5171 149.265 46.7874 142.491 40.5874C140.983 39.199 138.804 38.84 136.913 39.6778C135.046 40.4917 133.825 42.3589 133.825 44.3936V54.5913V54.5673Z" fill="#2A143F"/>
</svg>