<svg width="149" height="46" viewBox="0 0 149 46" fill="none" xmlns="http://www.w3.org/2000/svg">
<path d="M46.1849 18.1606H45.8064C45.7107 18.1606 45.6629 18.1084 45.6629 18.004V14.9892L43.131 9.92536C43.0788 9.82095 43.1092 9.76875 43.2223 9.76875H43.6922C43.7705 9.76875 43.8314 9.82095 43.8749 9.92536L45.9631 14.1931H46.0283L48.1034 9.92536C48.1469 9.82095 48.2079 9.76875 48.2862 9.76875H48.769C48.8648 9.76875 48.8952 9.82095 48.8604 9.92536L46.3154 14.9892V18.004C46.3154 18.1084 46.2719 18.1606 46.1849 18.1606ZM51.9136 17.5733H53.4014C53.8017 17.5733 54.1062 17.4645 54.315 17.247C54.5325 17.0208 54.6413 16.6989 54.6413 16.2812V11.6481C54.6413 11.2305 54.5325 10.9129 54.315 10.6954C54.1062 10.4692 53.8017 10.356 53.4014 10.356H51.9136C51.5134 10.356 51.2088 10.4692 51 10.6954C50.7912 10.9216 50.6868 11.2392 50.6868 11.6481V16.2812C50.6868 16.6902 50.7912 17.0078 51 17.234C51.2088 17.4602 51.5134 17.5733 51.9136 17.5733ZM53.4667 18.1606H51.8614C51.2959 18.1606 50.8478 17.9953 50.5171 17.6647C50.1952 17.334 50.0342 16.8816 50.0342 16.3073V11.622C50.0342 11.0478 50.1952 10.5953 50.5171 10.2647C50.8478 9.93406 51.2959 9.76875 51.8614 9.76875H53.4667C54.0322 9.76875 54.476 9.93406 54.7979 10.2647C55.1285 10.5953 55.2938 11.0478 55.2938 11.622V16.3073C55.2938 16.8816 55.1285 17.334 54.7979 17.6647C54.476 17.9953 54.0322 18.1606 53.4667 18.1606ZM61.7608 9.76875H62.1262C62.222 9.76875 62.2698 9.8166 62.2698 9.91231V16.3073C62.2698 16.8816 62.1045 17.334 61.7739 17.6647C61.4519 17.9953 61.0082 18.1606 60.4427 18.1606H58.9809C58.4154 18.1606 57.9673 17.9953 57.6367 17.6647C57.3147 17.334 57.1538 16.8816 57.1538 16.3073V9.92536C57.1538 9.82095 57.1973 9.76875 57.2843 9.76875H57.6628C57.7585 9.76875 57.8063 9.82095 57.8063 9.92536V16.2812C57.8063 16.6902 57.9107 17.0078 58.1196 17.234C58.3284 17.4602 58.6329 17.5733 59.0331 17.5733H60.3774C60.7776 17.5733 61.0822 17.4645 61.291 17.247C61.5085 17.0208 61.6173 16.6989 61.6173 16.2812V9.92536C61.6173 9.82095 61.6651 9.76875 61.7608 9.76875ZM64.7696 18.1606H64.3911C64.3041 18.1606 64.2606 18.1084 64.2606 18.004V9.92536C64.2606 9.82095 64.3041 9.76875 64.3911 9.76875H67.3667C67.9323 9.76875 68.3804 9.93406 68.711 10.2647C69.0416 10.5953 69.2069 11.0478 69.2069 11.622V12.8619C69.2069 13.3491 69.0808 13.7493 68.8284 14.0626C68.5848 14.3758 68.2498 14.5759 67.8235 14.6629V14.7151L69.3766 18.004C69.4288 18.1084 69.3983 18.1606 69.2852 18.1606H68.8806C68.7675 18.1606 68.6892 18.1084 68.6457 18.004L67.1057 14.7151H65.0436C64.9566 14.7151 64.9131 14.7543 64.9131 14.8326V18.004C64.9131 18.1084 64.8653 18.1606 64.7696 18.1606ZM65.0436 14.1539H67.3015C67.7017 14.1539 68.0106 14.0452 68.2281 13.8276C68.4456 13.6014 68.5544 13.2838 68.5544 12.8749V11.6481C68.5544 11.2392 68.4456 10.9216 68.2281 10.6954C68.0106 10.4692 67.7017 10.356 67.3015 10.356H65.0436C64.9566 10.356 64.9131 10.3952 64.9131 10.4735V14.0365C64.9131 14.1148 64.9566 14.1539 65.0436 14.1539ZM74.3404 16.3073V15.8375C74.3404 15.7418 74.3883 15.6939 74.484 15.6939H74.8624C74.9582 15.6939 75.006 15.7418 75.006 15.8375V16.2682C75.006 17.1383 75.428 17.5733 76.272 17.5733H77.6293C78.4732 17.5733 78.8952 17.1339 78.8952 16.2551V15.707C78.8952 15.3242 78.7386 15.024 78.4254 14.8065C78.1122 14.589 77.7337 14.4323 77.29 14.3366C76.8462 14.2409 76.3981 14.1409 75.9457 14.0365C75.502 13.932 75.1235 13.7406 74.8102 13.4622C74.497 13.1838 74.3404 12.8097 74.3404 12.3398V11.622C74.3404 11.0478 74.5057 10.5953 74.8363 10.2647C75.167 9.93406 75.6151 9.76875 76.1806 9.76875H77.6945C78.2601 9.76875 78.7082 9.93406 79.0388 10.2647C79.3694 10.5953 79.5347 11.0478 79.5347 11.622V11.9874C79.5347 12.0831 79.4869 12.131 79.3912 12.131H79.0127C78.917 12.131 78.8691 12.0831 78.8691 11.9874V11.6612C78.8691 10.7911 78.4471 10.356 77.6032 10.356H76.2589C75.4236 10.356 75.006 10.7998 75.006 11.6873V12.3398C75.006 12.9402 75.5411 13.3447 76.6113 13.5536C77.055 13.6406 77.4988 13.7406 77.9425 13.8537C78.3949 13.9669 78.7778 14.1713 79.091 14.4671C79.4042 14.763 79.5608 15.1632 79.5608 15.6678V16.3073C79.5608 16.8816 79.3955 17.334 79.0649 17.6647C78.7343 17.9953 78.2862 18.1606 77.7206 18.1606H76.1806C75.6151 18.1606 75.167 17.9953 74.8363 17.6647C74.5057 17.334 74.3404 16.8816 74.3404 16.3073ZM83.3887 18.1606H83.0103C82.9146 18.1606 82.8667 18.1084 82.8667 18.004V10.4735C82.8667 10.3952 82.8232 10.356 82.7362 10.356H80.8438C80.7394 10.356 80.6872 10.3082 80.6872 10.2125V9.91231C80.6872 9.8166 80.7394 9.76875 80.8438 9.76875H85.5422C85.6466 9.76875 85.6988 9.8166 85.6988 9.91231V10.2125C85.6988 10.3082 85.6466 10.356 85.5422 10.356H83.6498C83.5628 10.356 83.5193 10.3952 83.5193 10.4735V18.004C83.5193 18.1084 83.4758 18.1606 83.3887 18.1606ZM87.3915 18.1606H87.013C86.926 18.1606 86.8825 18.1084 86.8825 18.004V9.92536C86.8825 9.82095 86.926 9.76875 87.013 9.76875H89.9887C90.5542 9.76875 91.0023 9.93406 91.3329 10.2647C91.6636 10.5953 91.8289 11.0478 91.8289 11.622V12.8619C91.8289 13.3491 91.7027 13.7493 91.4504 14.0626C91.2068 14.3758 90.8718 14.5759 90.4455 14.6629V14.7151L91.9985 18.004C92.0508 18.1084 92.0203 18.1606 91.9072 18.1606H91.5026C91.3895 18.1606 91.3112 18.1084 91.2677 18.004L89.7277 14.7151H87.6656C87.5786 14.7151 87.5351 14.7543 87.5351 14.8326V18.004C87.5351 18.1084 87.4872 18.1606 87.3915 18.1606ZM87.6656 14.1539H89.9234C90.3237 14.1539 90.6325 14.0452 90.8501 13.8276C91.0676 13.6014 91.1763 13.2838 91.1763 12.8749V11.6481C91.1763 11.2392 91.0676 10.9216 90.8501 10.6954C90.6325 10.4692 90.3237 10.356 89.9234 10.356H87.6656C87.5786 10.356 87.5351 10.3952 87.5351 10.4735V14.0365C87.5351 14.1148 87.5786 14.1539 87.6656 14.1539ZM93.4728 18.1606H93.0682C92.9725 18.1606 92.942 18.1084 92.9768 18.004L95.574 9.92536C95.6001 9.82095 95.661 9.76875 95.7567 9.76875H96.3701C96.4571 9.76875 96.518 9.82095 96.5528 9.92536L99.15 18.004C99.1761 18.1084 99.1456 18.1606 99.0586 18.1606H98.641C98.554 18.1606 98.4974 18.1084 98.4713 18.004L97.7666 15.9158H94.3472L93.6424 18.004C93.6076 18.1084 93.5511 18.1606 93.4728 18.1606ZM96.0308 10.4866L94.5299 15.3285H97.5969L96.083 10.4866H96.0308ZM102.321 18.1606H101.943C101.847 18.1606 101.799 18.1084 101.799 18.004V10.4735C101.799 10.3952 101.756 10.356 101.669 10.356H99.7762C99.6718 10.356 99.6196 10.3082 99.6196 10.2125V9.91231C99.6196 9.8166 99.6718 9.76875 99.7762 9.76875H104.475C104.579 9.76875 104.631 9.8166 104.631 9.91231V10.2125C104.631 10.3082 104.579 10.356 104.475 10.356H102.582C102.495 10.356 102.452 10.3952 102.452 10.4735V18.004C102.452 18.1084 102.408 18.1606 102.321 18.1606ZM109.978 18.1606H105.945C105.858 18.1606 105.815 18.1084 105.815 18.004V9.92536C105.815 9.82095 105.858 9.76875 105.945 9.76875H109.978C110.083 9.76875 110.135 9.8166 110.135 9.91231V10.2125C110.135 10.3082 110.083 10.356 109.978 10.356H106.598C106.511 10.356 106.467 10.3952 106.467 10.4735V13.4753C106.467 13.5536 106.511 13.5927 106.598 13.5927H109.613C109.709 13.5927 109.756 13.6406 109.756 13.7363V14.0365C109.756 14.1322 109.709 14.18 109.613 14.18H106.598C106.511 14.18 106.467 14.2192 106.467 14.2975V17.4558C106.467 17.5341 106.511 17.5733 106.598 17.5733H109.978C110.083 17.5733 110.135 17.6212 110.135 17.7169V18.017C110.135 18.1127 110.083 18.1606 109.978 18.1606ZM115.058 18.1606H113.635C113.07 18.1606 112.622 17.9953 112.291 17.6647C111.969 17.334 111.808 16.8816 111.808 16.3073V11.622C111.808 11.0478 111.969 10.5953 112.291 10.2647C112.622 9.93406 113.07 9.76875 113.635 9.76875H115.058C115.624 9.76875 116.072 9.93406 116.402 10.2647C116.733 10.5953 116.898 11.0478 116.898 11.622V12.2093C116.898 12.3137 116.85 12.3659 116.755 12.3659H116.376C116.28 12.3659 116.233 12.3137 116.233 12.2093V11.6481C116.233 11.2305 116.128 10.9129 115.919 10.6954C115.711 10.4692 115.406 10.356 115.006 10.356H113.688C113.287 10.356 112.983 10.4692 112.774 10.6954C112.565 10.9216 112.461 11.2392 112.461 11.6481V16.2812C112.461 16.6902 112.565 17.0078 112.774 17.234C112.983 17.4602 113.287 17.5733 113.688 17.5733H115.006C115.406 17.5733 115.711 17.4645 115.919 17.247C116.128 17.0208 116.233 16.6989 116.233 16.2812V14.5585C116.233 14.4802 116.193 14.441 116.115 14.441H114.614C114.519 14.441 114.471 14.3932 114.471 14.2975V13.9973C114.471 13.9016 114.519 13.8537 114.614 13.8537H116.65C116.816 13.8537 116.898 13.9407 116.898 14.1148V16.3073C116.898 16.8816 116.733 17.334 116.402 17.6647C116.072 17.9953 115.624 18.1606 115.058 18.1606ZM121.112 18.1606H120.733C120.637 18.1606 120.59 18.1084 120.59 18.004V14.9892L118.058 9.92536C118.005 9.82095 118.036 9.76875 118.149 9.76875H118.619C118.697 9.76875 118.758 9.82095 118.802 9.92536L120.89 14.1931H120.955L123.03 9.92536C123.074 9.82095 123.135 9.76875 123.213 9.76875H123.696C123.791 9.76875 123.822 9.82095 123.787 9.92536L121.242 14.9892V18.004C121.242 18.1084 121.199 18.1606 121.112 18.1606ZM128.92 18.1606H128.542C128.455 18.1606 128.411 18.1084 128.411 18.004V9.92536C128.411 9.82095 128.455 9.76875 128.542 9.76875H132.562C132.666 9.76875 132.718 9.8166 132.718 9.91231V10.2125C132.718 10.3082 132.666 10.356 132.562 10.356H129.194C129.107 10.356 129.064 10.3952 129.064 10.4735V13.6449C129.064 13.7145 129.107 13.7493 129.194 13.7493H132.209C132.305 13.7493 132.353 13.7972 132.353 13.8929V14.2061C132.353 14.3018 132.305 14.3497 132.209 14.3497H129.194C129.107 14.3497 129.064 14.3845 129.064 14.4541V18.004C129.064 18.1084 129.016 18.1606 128.92 18.1606ZM135.991 17.5733H137.479C137.879 17.5733 138.184 17.4645 138.392 17.247C138.61 17.0208 138.719 16.6989 138.719 16.2812V11.6481C138.719 11.2305 138.61 10.9129 138.392 10.6954C138.184 10.4692 137.879 10.356 137.479 10.356H135.991C135.591 10.356 135.286 10.4692 135.077 10.6954C134.869 10.9216 134.764 11.2392 134.764 11.6481V16.2812C134.764 16.6902 134.869 17.0078 135.077 17.234C135.286 17.4602 135.591 17.5733 135.991 17.5733ZM137.544 18.1606H135.939C135.373 18.1606 134.925 17.9953 134.595 17.6647C134.273 17.334 134.112 16.8816 134.112 16.3073V11.622C134.112 11.0478 134.273 10.5953 134.595 10.2647C134.925 9.93406 135.373 9.76875 135.939 9.76875H137.544C138.11 9.76875 138.553 9.93406 138.875 10.2647C139.206 10.5953 139.371 11.0478 139.371 11.622V16.3073C139.371 16.8816 139.206 17.334 138.875 17.6647C138.553 17.9953 138.11 18.1606 137.544 18.1606ZM141.805 18.1606H141.427C141.34 18.1606 141.296 18.1084 141.296 18.004V9.92536C141.296 9.82095 141.34 9.76875 141.427 9.76875H144.403C144.968 9.76875 145.416 9.93406 145.747 10.2647C146.077 10.5953 146.243 11.0478 146.243 11.622V12.8619C146.243 13.3491 146.117 13.7493 145.864 14.0626C145.621 14.3758 145.286 14.5759 144.859 14.6629V14.7151L146.412 18.004C146.465 18.1084 146.434 18.1606 146.321 18.1606H145.916C145.803 18.1606 145.725 18.1084 145.682 18.004L144.142 14.7151H142.079C141.992 14.7151 141.949 14.7543 141.949 14.8326V18.004C141.949 18.1084 141.901 18.1606 141.805 18.1606ZM142.079 14.1539H144.337C144.738 14.1539 145.046 14.0452 145.264 13.8276C145.481 13.6014 145.59 13.2838 145.59 12.8749V11.6481C145.59 11.2392 145.481 10.9216 145.264 10.6954C145.046 10.4692 144.738 10.356 144.337 10.356H142.079C141.992 10.356 141.949 10.3952 141.949 10.4735V14.0365C141.949 14.1148 141.992 14.1539 142.079 14.1539ZM45.0103 35.1606H43.901C43.7183 35.1606 43.6269 35.0692 43.6269 34.8865V27.0428C43.6269 26.8601 43.7183 26.7687 43.901 26.7687H47.0071C47.6858 26.7687 48.2166 26.9558 48.5994 27.3299C48.9822 27.7041 49.1736 28.2305 49.1736 28.9091V29.9271C49.1736 30.9103 48.7864 31.5629 48.0121 31.8848V31.937L49.4086 34.8474C49.4869 35.0562 49.4129 35.1606 49.1867 35.1606H48.1295C47.9729 35.1606 47.8598 35.1432 47.7902 35.1084C47.7206 35.0736 47.6641 34.9996 47.6206 34.8865L46.3154 32.0675H45.441C45.3366 32.0675 45.2844 32.1153 45.2844 32.2111V34.8865C45.2844 35.0692 45.193 35.1606 45.0103 35.1606ZM45.428 30.7363H46.707C46.9854 30.7363 47.1899 30.6797 47.3204 30.5666C47.4509 30.4448 47.5161 30.2534 47.5161 29.9924V28.9744C47.5161 28.7047 47.4509 28.5089 47.3204 28.3871C47.1899 28.2653 46.9854 28.2044 46.707 28.2044H45.428C45.3323 28.2044 45.2844 28.2522 45.2844 28.3479V30.5927C45.2844 30.6884 45.3323 30.7363 45.428 30.7363ZM55.1465 35.1606H50.8788C50.6961 35.1606 50.6047 35.0692 50.6047 34.8865V27.0428C50.6047 26.8601 50.6961 26.7687 50.8788 26.7687H55.1465C55.3205 26.7687 55.4075 26.8601 55.4075 27.0428V27.9303C55.4075 28.113 55.3205 28.2044 55.1465 28.2044H52.4188C52.3144 28.2044 52.2622 28.2522 52.2622 28.3479V30.0446C52.2622 30.1403 52.3144 30.1881 52.4188 30.1881H54.6506C54.8333 30.1881 54.9246 30.2795 54.9246 30.4622V31.3497C54.9246 31.5324 54.8333 31.6238 54.6506 31.6238H52.4188C52.3144 31.6238 52.2622 31.6716 52.2622 31.7673V33.5814C52.2622 33.6771 52.3144 33.725 52.4188 33.725H55.1465C55.3205 33.725 55.4075 33.8163 55.4075 33.9991V34.8865C55.4075 35.0692 55.3205 35.1606 55.1465 35.1606ZM56.4815 33.0202V32.7592C56.4815 32.5765 56.5729 32.4851 56.7556 32.4851H57.865C58.0477 32.4851 58.139 32.5765 58.139 32.7592V32.8636C58.139 33.1942 58.2043 33.4205 58.3348 33.5423C58.4653 33.6641 58.7046 33.725 59.0526 33.725H59.666C60.0053 33.725 60.2403 33.6597 60.3708 33.5292C60.51 33.3987 60.5796 33.1551 60.5796 32.7984V32.6417C60.5796 32.3894 60.4752 32.198 60.2664 32.0675C60.0662 31.9283 59.8139 31.8456 59.5094 31.8195C59.2049 31.7934 58.8742 31.7456 58.5175 31.676C58.1695 31.5977 57.8432 31.5019 57.5387 31.3888C57.2342 31.267 56.9775 31.0365 56.7687 30.6971C56.5686 30.3491 56.4685 29.9054 56.4685 29.3659V28.9091C56.4685 28.2305 56.6599 27.7041 57.0427 27.3299C57.4256 26.9558 57.9563 26.7687 58.635 26.7687H59.9401C60.6274 26.7687 61.1625 26.9558 61.5454 27.3299C61.9282 27.7041 62.1196 28.2305 62.1196 28.9091V29.1571C62.1196 29.3398 62.0283 29.4312 61.8455 29.4312H60.7362C60.5535 29.4312 60.4621 29.3398 60.4621 29.1571V29.0788C60.4621 28.7395 60.3969 28.5089 60.2664 28.3871C60.1358 28.2653 59.8966 28.2044 59.5486 28.2044H59.0396C58.6828 28.2044 58.4392 28.274 58.3087 28.4132C58.1869 28.5437 58.126 28.8047 58.126 29.1963V29.4442C58.126 29.8532 58.4827 30.0881 59.1962 30.149C59.9357 30.2099 60.5926 30.3578 61.1669 30.5927C61.4714 30.7232 61.7237 30.9581 61.9238 31.2975C62.1327 31.6281 62.2371 32.0544 62.2371 32.5765V33.0202C62.2371 33.6989 62.0457 34.2253 61.6628 34.5994C61.28 34.9735 60.7493 35.1606 60.0706 35.1606H58.648C57.9694 35.1606 57.4386 34.9735 57.0558 34.5994C56.673 34.2253 56.4815 33.6989 56.4815 33.0202ZM64.9496 35.1606H63.8403C63.6576 35.1606 63.5662 35.0692 63.5662 34.8865V27.0428C63.5662 26.8601 63.6576 26.7687 63.8403 26.7687H67.0247C67.7034 26.7687 68.2298 26.9558 68.6039 27.3299C68.9781 27.6954 69.1651 28.2174 69.1651 28.8961V30.149C69.1651 30.8276 68.9781 31.354 68.6039 31.7282C68.2298 32.0936 67.7034 32.2763 67.0247 32.2763H65.3803C65.2759 32.2763 65.2237 32.3242 65.2237 32.4199V34.8865C65.2237 35.0692 65.1323 35.1606 64.9496 35.1606ZM65.3673 30.8276H66.7507C67.0291 30.8276 67.2249 30.7711 67.338 30.658C67.4511 30.5362 67.5076 30.3404 67.5076 30.0707V28.9744C67.5076 28.696 67.4511 28.5002 67.338 28.3871C67.2249 28.2653 67.0291 28.2044 66.7507 28.2044H65.3673C65.2715 28.2044 65.2237 28.2522 65.2237 28.3479V30.6841C65.2237 30.7798 65.2715 30.8276 65.3673 30.8276ZM72.6113 33.725H73.5379C73.8163 33.725 74.0121 33.6684 74.1252 33.5553C74.247 33.4335 74.3079 33.2334 74.3079 32.955V28.9744C74.3079 28.696 74.247 28.5002 74.1252 28.3871C74.0121 28.2653 73.8163 28.2044 73.5379 28.2044H72.6113C72.3329 28.2044 72.1371 28.2653 72.024 28.3871C71.9109 28.5002 71.8543 28.696 71.8543 28.9744V32.955C71.8543 33.2334 71.9109 33.4335 72.024 33.5553C72.1371 33.6684 72.3329 33.725 72.6113 33.725ZM73.812 35.1606H72.3503C71.6629 35.1606 71.1322 34.9779 70.758 34.6125C70.3839 34.247 70.1968 33.7206 70.1968 33.0333V28.8961C70.1968 28.2087 70.3839 27.6823 70.758 27.3169C71.1322 26.9515 71.6629 26.7687 72.3503 26.7687H73.812C74.4993 26.7687 75.0301 26.9515 75.4042 27.3169C75.7783 27.6823 75.9654 28.2087 75.9654 28.8961V33.0333C75.9654 33.7206 75.7783 34.247 75.4042 34.6125C75.0301 34.9779 74.4993 35.1606 73.812 35.1606ZM78.7262 35.1606H77.6429C77.4602 35.1606 77.3689 35.0692 77.3689 34.8865V27.0428C77.3689 26.8601 77.4602 26.7687 77.6429 26.7687H78.6218C78.8045 26.7687 78.9263 26.8297 78.9872 26.9515L81.6235 31.8978H81.6757V27.0428C81.6757 26.8601 81.7671 26.7687 81.9498 26.7687H83.033C83.2158 26.7687 83.3071 26.8601 83.3071 27.0428V34.8865C83.3071 35.0692 83.2158 35.1606 83.033 35.1606H82.0803C81.8889 35.1606 81.7497 35.0736 81.6627 34.8996L79.0525 30.0446H79.0003V34.8865C79.0003 35.0692 78.9089 35.1606 78.7262 35.1606ZM84.6349 33.0202V32.7592C84.6349 32.5765 84.7263 32.4851 84.909 32.4851H86.0183C86.201 32.4851 86.2924 32.5765 86.2924 32.7592V32.8636C86.2924 33.1942 86.3577 33.4205 86.4882 33.5423C86.6187 33.6641 86.858 33.725 87.206 33.725H87.8194C88.1587 33.725 88.3936 33.6597 88.5241 33.5292C88.6634 33.3987 88.733 33.1551 88.733 32.7984V32.6417C88.733 32.3894 88.6286 32.198 88.4197 32.0675C88.2196 31.9283 87.9673 31.8456 87.6628 31.8195C87.3582 31.7934 87.0276 31.7456 86.6709 31.676C86.3229 31.5977 85.9966 31.5019 85.6921 31.3888C85.3875 31.267 85.1309 31.0365 84.922 30.6971C84.7219 30.3491 84.6219 29.9054 84.6219 29.3659V28.9091C84.6219 28.2305 84.8133 27.7041 85.1961 27.3299C85.5789 26.9558 86.1097 26.7687 86.7883 26.7687H88.0935C88.7808 26.7687 89.3159 26.9558 89.6987 27.3299C90.0816 27.7041 90.273 28.2305 90.273 28.9091V29.1571C90.273 29.3398 90.1816 29.4312 89.9989 29.4312H88.8896C88.7069 29.4312 88.6155 29.3398 88.6155 29.1571V29.0788C88.6155 28.7395 88.5502 28.5089 88.4197 28.3871C88.2892 28.2653 88.05 28.2044 87.7019 28.2044H87.1929C86.8362 28.2044 86.5926 28.274 86.4621 28.4132C86.3403 28.5437 86.2794 28.8047 86.2794 29.1963V29.4442C86.2794 29.8532 86.6361 30.0881 87.3495 30.149C88.0891 30.2099 88.746 30.3578 89.3203 30.5927C89.6248 30.7232 89.8771 30.9581 90.0772 31.2975C90.286 31.6281 90.3905 32.0544 90.3905 32.5765V33.0202C90.3905 33.6989 90.199 34.2253 89.8162 34.5994C89.4334 34.9735 88.9026 35.1606 88.224 35.1606H86.8014C86.1227 35.1606 85.592 34.9735 85.2092 34.5994C84.8263 34.2253 84.6349 33.6989 84.6349 33.0202ZM93.4423 27.0428V34.8865C93.4423 35.0692 93.351 35.1606 93.1683 35.1606H92.0589C91.8762 35.1606 91.7848 35.0692 91.7848 34.8865V27.0428C91.7848 26.8601 91.8762 26.7687 92.0589 26.7687H93.1683C93.351 26.7687 93.4423 26.8601 93.4423 27.0428ZM96.8406 33.7772H98.3023C98.5894 33.7772 98.7939 33.7206 98.9157 33.6075C99.0462 33.4857 99.1114 33.2899 99.1114 33.0202V32.2633C99.1114 31.9935 99.0462 31.8021 98.9157 31.689C98.7852 31.5759 98.572 31.5193 98.2762 31.5193H96.8406C96.7448 31.5193 96.697 31.5672 96.697 31.6629V33.6336C96.697 33.7293 96.7448 33.7772 96.8406 33.7772ZM96.8406 30.1751H98.1718C98.4502 30.1751 98.6547 30.1185 98.7852 30.0054C98.9157 29.8836 98.9809 29.6878 98.9809 29.4181V28.9091C98.9809 28.6394 98.9157 28.448 98.7852 28.3349C98.6634 28.2131 98.4632 28.1522 98.1848 28.1522H96.8406C96.7448 28.1522 96.697 28.2 96.697 28.2957V30.0315C96.697 30.1272 96.7448 30.1751 96.8406 30.1751ZM95.0395 34.8865V27.0428C95.0395 26.8601 95.1309 26.7687 95.3136 26.7687H98.4458C99.1332 26.7687 99.6639 26.9515 100.038 27.3169C100.412 27.6823 100.599 28.2044 100.599 28.883V29.4181C100.599 30.1577 100.256 30.6362 99.5682 30.8537C99.9163 30.9059 100.195 31.0495 100.404 31.2844C100.612 31.5106 100.717 31.8369 100.717 32.2633V33.0463C100.717 33.725 100.53 34.247 100.156 34.6125C99.7814 34.9779 99.255 35.1606 98.5764 35.1606H95.3136C95.1309 35.1606 95.0395 35.0692 95.0395 34.8865ZM106.687 35.1606H102.393C102.211 35.1606 102.119 35.0692 102.119 34.8865V27.0428C102.119 26.8601 102.211 26.7687 102.393 26.7687H103.503C103.685 26.7687 103.777 26.8601 103.777 27.0428V33.5684C103.777 33.6641 103.829 33.7119 103.933 33.7119H106.687C106.861 33.7119 106.948 33.8076 106.948 33.9991V34.8865C106.948 35.0692 106.861 35.1606 106.687 35.1606ZM112.364 35.1606H108.097C107.914 35.1606 107.823 35.0692 107.823 34.8865V27.0428C107.823 26.8601 107.914 26.7687 108.097 26.7687H112.364C112.538 26.7687 112.625 26.8601 112.625 27.0428V27.9303C112.625 28.113 112.538 28.2044 112.364 28.2044H109.637C109.532 28.2044 109.48 28.2522 109.48 28.3479V30.0446C109.48 30.1403 109.532 30.1881 109.637 30.1881H111.868C112.051 30.1881 112.142 30.2795 112.142 30.4622V31.3497C112.142 31.5324 112.051 31.6238 111.868 31.6238H109.637C109.532 31.6238 109.48 31.6716 109.48 31.7673V33.5814C109.48 33.6771 109.532 33.725 109.637 33.725H112.364C112.538 33.725 112.625 33.8163 112.625 33.9991V34.8865C112.625 35.0692 112.538 35.1606 112.364 35.1606ZM117.491 35.1606H116.238C116.081 35.1606 116.029 35.0692 116.081 34.8865L118.143 27.0428C118.204 26.8601 118.335 26.7687 118.535 26.7687H120.271C120.488 26.7687 120.619 26.8601 120.662 27.0428L122.724 34.8865C122.776 35.0692 122.724 35.1606 122.568 35.1606H121.315C121.219 35.1606 121.154 35.1432 121.119 35.1084C121.084 35.0649 121.058 34.9909 121.041 34.8865L120.675 33.4509H118.13L117.765 34.8865C117.747 34.9909 117.717 35.0649 117.673 35.1084C117.639 35.1432 117.578 35.1606 117.491 35.1606ZM119.383 28.3479L118.444 32.1197H120.375L119.435 28.3479H119.383ZM125.444 27.0428V34.8865C125.444 35.0692 125.353 35.1606 125.17 35.1606H124.061C123.878 35.1606 123.787 35.0692 123.787 34.8865V27.0428C123.787 26.8601 123.878 26.7687 124.061 26.7687H125.17C125.353 26.7687 125.444 26.8601 125.444 27.0428Z" fill="#2E1349"/>
<path d="M24.3929 39.1777L20.2654 31.6008H24.991L26.5263 34.4123L28.0417 31.6008H32.7673L28.6399 39.1777V44.9003H24.3929V39.1777Z" fill="#2E1349"/>
<path d="M20.2745 8.03636H24.701V17.8464H28.3698V21.3358H20.2745V8.03636Z" fill="#2E1349"/>
<path d="M6.49835 21.45H10.9249V31.2601H14.5937V34.7494H6.49835V21.45Z" fill="#2E1349"/>
<path d="M6.82101 1.14828H10.0113L15.0559 14.4477H10.8687L10.43 13.2514H6.40228L5.96362 14.4477H1.7764L6.82101 1.14828ZM9.3134 10.3203L8.41614 7.98741L7.51888 10.3203H9.3134Z" fill="#2E1349"/>
</svg>
