<svg width="208" height="65" viewBox="0 0 208 65" fill="none" xmlns="http://www.w3.org/2000/svg">
<path d="M64.4488 25.5898H63.9206C63.7871 25.5898 63.7203 25.517 63.7203 25.3713V21.1642L60.1871 14.0977C60.1142 13.952 60.1567 13.8792 60.3145 13.8792H60.9702C61.0795 13.8792 61.1645 13.952 61.2252 14.0977L64.1392 20.0532H64.2302L67.126 14.0977C67.1867 13.952 67.2717 13.8792 67.381 13.8792H68.0549C68.1884 13.8792 68.2309 13.952 68.1824 14.0977L64.6309 21.1642V25.3713C64.6309 25.517 64.5702 25.5898 64.4488 25.5898ZM72.443 24.7703H74.5193C75.0778 24.7703 75.5027 24.6185 75.7941 24.315C76.0977 23.9993 76.2495 23.55 76.2495 22.9672V16.5018C76.2495 15.919 76.0977 15.4758 75.7941 15.1723C75.5027 14.8566 75.0778 14.6987 74.5193 14.6987H72.443C71.8845 14.6987 71.4596 14.8566 71.1682 15.1723C70.8768 15.488 70.7311 15.9311 70.7311 16.5018V22.9672C70.7311 23.5379 70.8768 23.9811 71.1682 24.2968C71.4596 24.6124 71.8845 24.7703 72.443 24.7703ZM74.6103 25.5898H72.3702C71.581 25.5898 70.9557 25.3592 70.4943 24.8978C70.045 24.4364 69.8204 23.805 69.8204 23.0037V16.4654C69.8204 15.664 70.045 15.0326 70.4943 14.5713C70.9557 14.1099 71.581 13.8792 72.3702 13.8792H74.6103C75.3995 13.8792 76.0188 14.1099 76.468 14.5713C76.9294 15.0326 77.1601 15.664 77.1601 16.4654V23.0037C77.1601 23.805 76.9294 24.4364 76.468 24.8978C76.0188 25.3592 75.3995 25.5898 74.6103 25.5898ZM86.1846 13.8792H86.6946C86.8281 13.8792 86.8949 13.946 86.8949 14.0795V23.0037C86.8949 23.805 86.6642 24.4364 86.2028 24.8978C85.7536 25.3592 85.1344 25.5898 84.3452 25.5898H82.3053C81.5161 25.5898 80.8908 25.3592 80.4295 24.8978C79.9802 24.4364 79.7556 23.805 79.7556 23.0037V14.0977C79.7556 13.952 79.8163 13.8792 79.9377 13.8792H80.4659C80.5994 13.8792 80.6662 13.952 80.6662 14.0977V22.9672C80.6662 23.5379 80.8119 23.9811 81.1033 24.2968C81.3947 24.6124 81.8197 24.7703 82.3782 24.7703H84.2541C84.8126 24.7703 85.2376 24.6185 85.529 24.315C85.8325 23.9993 85.9843 23.55 85.9843 22.9672V14.0977C85.9843 13.952 86.0511 13.8792 86.1846 13.8792ZM90.3833 25.5898H89.8551C89.7337 25.5898 89.673 25.517 89.673 25.3713V14.0977C89.673 13.952 89.7337 13.8792 89.8551 13.8792H94.0076C94.7968 13.8792 95.4221 14.1099 95.8834 14.5713C96.3448 15.0326 96.5755 15.664 96.5755 16.4654V18.1955C96.5755 18.8755 96.3995 19.434 96.0474 19.8711C95.7074 20.3082 95.2399 20.5875 94.645 20.7089V20.7817L96.8123 25.3713C96.8851 25.517 96.8426 25.5898 96.6848 25.5898H96.1202C95.9624 25.5898 95.8531 25.517 95.7924 25.3713L93.6433 20.7817H90.7657C90.6443 20.7817 90.5836 20.8364 90.5836 20.9456V25.3713C90.5836 25.517 90.5168 25.5898 90.3833 25.5898ZM90.7657 19.9986H93.9165C94.475 19.9986 94.906 19.8468 95.2096 19.5433C95.5131 19.2276 95.6649 18.7844 95.6649 18.2138V16.5018C95.6649 15.9311 95.5131 15.488 95.2096 15.1723C94.906 14.8566 94.475 14.6987 93.9165 14.6987H90.7657C90.6443 14.6987 90.5836 14.7534 90.5836 14.8627V19.8347C90.5836 19.944 90.6443 19.9986 90.7657 19.9986ZM103.739 23.0037V22.348C103.739 22.2145 103.806 22.1477 103.94 22.1477H104.468C104.601 22.1477 104.668 22.2145 104.668 22.348V22.949C104.668 24.1632 105.257 24.7703 106.435 24.7703H108.329C109.506 24.7703 110.095 24.1571 110.095 22.9308V22.1659C110.095 21.6317 109.877 21.2128 109.44 20.9092C109.003 20.6057 108.474 20.3871 107.855 20.2536C107.236 20.12 106.611 19.9804 105.979 19.8347C105.36 19.689 104.832 19.4219 104.395 19.0333C103.958 18.6448 103.739 18.1227 103.739 17.467V16.4654C103.739 15.664 103.97 15.0326 104.431 14.5713C104.893 14.1099 105.518 13.8792 106.307 13.8792H108.42C109.209 13.8792 109.834 14.1099 110.296 14.5713C110.757 15.0326 110.988 15.664 110.988 16.4654V16.9753C110.988 17.1089 110.921 17.1756 110.787 17.1756H110.259C110.126 17.1756 110.059 17.1089 110.059 16.9753V16.52C110.059 15.3058 109.47 14.6987 108.292 14.6987H106.416C105.251 14.6987 104.668 15.318 104.668 16.5564V17.467C104.668 18.3048 105.415 18.8694 106.908 19.1608C107.527 19.2822 108.147 19.4219 108.766 19.5797C109.397 19.7375 109.931 20.0229 110.369 20.4357C110.806 20.8485 111.024 21.407 111.024 22.1112V23.0037C111.024 23.805 110.794 24.4364 110.332 24.8978C109.871 25.3592 109.245 25.5898 108.456 25.5898H106.307C105.518 25.5898 104.893 25.3592 104.431 24.8978C103.97 24.4364 103.739 23.805 103.739 23.0037ZM116.366 25.5898H115.838C115.704 25.5898 115.637 25.517 115.637 25.3713V14.8627C115.637 14.7534 115.577 14.6987 115.455 14.6987H112.815C112.669 14.6987 112.596 14.632 112.596 14.4984V14.0795C112.596 13.946 112.669 13.8792 112.815 13.8792H119.371C119.517 13.8792 119.59 13.946 119.59 14.0795V14.4984C119.59 14.632 119.517 14.6987 119.371 14.6987H116.73C116.609 14.6987 116.548 14.7534 116.548 14.8627V25.3713C116.548 25.517 116.487 25.5898 116.366 25.5898ZM121.952 25.5898H121.424C121.302 25.5898 121.241 25.517 121.241 25.3713V14.0977C121.241 13.952 121.302 13.8792 121.424 13.8792H125.576C126.365 13.8792 126.991 14.1099 127.452 14.5713C127.913 15.0326 128.144 15.664 128.144 16.4654V18.1955C128.144 18.8755 127.968 19.434 127.616 19.8711C127.276 20.3082 126.808 20.5875 126.213 20.7089V20.7817L128.381 25.3713C128.454 25.517 128.411 25.5898 128.253 25.5898H127.689C127.531 25.5898 127.422 25.517 127.361 25.3713L125.212 20.7817H122.334C122.213 20.7817 122.152 20.8364 122.152 20.9456V25.3713C122.152 25.517 122.085 25.5898 121.952 25.5898ZM122.334 19.9986H125.485C126.044 19.9986 126.475 19.8468 126.778 19.5433C127.082 19.2276 127.233 18.7844 127.233 18.2138V16.5018C127.233 15.9311 127.082 15.488 126.778 15.1723C126.475 14.8566 126.044 14.6987 125.485 14.6987H122.334C122.213 14.6987 122.152 14.7534 122.152 14.8627V19.8347C122.152 19.944 122.213 19.9986 122.334 19.9986ZM130.438 25.5898H129.873C129.74 25.5898 129.697 25.517 129.746 25.3713L133.37 14.0977C133.407 13.952 133.492 13.8792 133.625 13.8792H134.481C134.603 13.8792 134.688 13.952 134.736 14.0977L138.36 25.3713C138.397 25.517 138.354 25.5898 138.233 25.5898H137.65C137.529 25.5898 137.45 25.517 137.413 25.3713L136.43 22.4573H131.658L130.675 25.3713C130.626 25.517 130.547 25.5898 130.438 25.5898ZM134.008 14.8809L131.913 21.6377H136.193L134.081 14.8809H134.008ZM142.786 25.5898H142.258C142.124 25.5898 142.057 25.517 142.057 25.3713V14.8627C142.057 14.7534 141.997 14.6987 141.875 14.6987H139.234C139.089 14.6987 139.016 14.632 139.016 14.4984V14.0795C139.016 13.946 139.089 13.8792 139.234 13.8792H145.791C145.937 13.8792 146.009 13.946 146.009 14.0795V14.4984C146.009 14.632 145.937 14.6987 145.791 14.6987H143.15C143.029 14.6987 142.968 14.7534 142.968 14.8627V25.3713C142.968 25.517 142.907 25.5898 142.786 25.5898ZM153.471 25.5898H147.843C147.722 25.5898 147.661 25.517 147.661 25.3713V14.0977C147.661 13.952 147.722 13.8792 147.843 13.8792H153.471C153.617 13.8792 153.69 13.946 153.69 14.0795V14.4984C153.69 14.632 153.617 14.6987 153.471 14.6987H148.754C148.633 14.6987 148.572 14.7534 148.572 14.8627V19.0515C148.572 19.1608 148.633 19.2155 148.754 19.2155H152.961C153.095 19.2155 153.161 19.2822 153.161 19.4158V19.8347C153.161 19.9682 153.095 20.035 152.961 20.035H148.754C148.633 20.035 148.572 20.0897 148.572 20.1989V24.6064C148.572 24.7156 148.633 24.7703 148.754 24.7703H153.471C153.617 24.7703 153.69 24.8371 153.69 24.9706V25.3895C153.69 25.5231 153.617 25.5898 153.471 25.5898ZM160.56 25.5898H158.575C157.785 25.5898 157.16 25.3592 156.699 24.8978C156.25 24.4364 156.025 23.805 156.025 23.0037V16.4654C156.025 15.664 156.25 15.0326 156.699 14.5713C157.16 14.1099 157.785 13.8792 158.575 13.8792H160.56C161.349 13.8792 161.974 14.1099 162.436 14.5713C162.897 15.0326 163.128 15.664 163.128 16.4654V17.2849C163.128 17.4306 163.061 17.5035 162.927 17.5035H162.399C162.266 17.5035 162.199 17.4306 162.199 17.2849V16.5018C162.199 15.919 162.053 15.4758 161.762 15.1723C161.47 14.8566 161.045 14.6987 160.487 14.6987H158.648C158.089 14.6987 157.664 14.8566 157.373 15.1723C157.081 15.488 156.936 15.9311 156.936 16.5018V22.9672C156.936 23.5379 157.081 23.9811 157.373 24.2968C157.664 24.6124 158.089 24.7703 158.648 24.7703H160.487C161.045 24.7703 161.47 24.6185 161.762 24.315C162.053 23.9993 162.199 23.55 162.199 22.9672V20.5632C162.199 20.4539 162.144 20.3993 162.035 20.3993H159.941C159.807 20.3993 159.74 20.3325 159.74 20.1989V19.78C159.74 19.6465 159.807 19.5797 159.941 19.5797H162.782C163.012 19.5797 163.128 19.7011 163.128 19.944V23.0037C163.128 23.805 162.897 24.4364 162.436 24.8978C161.974 25.3592 161.349 25.5898 160.56 25.5898ZM169.008 25.5898H168.479C168.346 25.5898 168.279 25.517 168.279 25.3713V21.1642L164.746 14.0977C164.673 13.952 164.715 13.8792 164.873 13.8792H165.529C165.638 13.8792 165.723 13.952 165.784 14.0977L168.698 20.0532H168.789L171.685 14.0977C171.745 13.952 171.83 13.8792 171.94 13.8792H172.614C172.747 13.8792 172.79 13.952 172.741 14.0977L169.19 21.1642V25.3713C169.19 25.517 169.129 25.5898 169.008 25.5898ZM179.904 25.5898H179.376C179.255 25.5898 179.194 25.517 179.194 25.3713V14.0977C179.194 13.952 179.255 13.8792 179.376 13.8792H184.986C185.131 13.8792 185.204 13.946 185.204 14.0795V14.4984C185.204 14.632 185.131 14.6987 184.986 14.6987H180.287C180.166 14.6987 180.105 14.7534 180.105 14.8627V19.2883C180.105 19.3854 180.166 19.434 180.287 19.434H184.494C184.628 19.434 184.694 19.5008 184.694 19.6343V20.0714C184.694 20.205 184.628 20.2718 184.494 20.2718H180.287C180.166 20.2718 180.105 20.3203 180.105 20.4175V25.3713C180.105 25.517 180.038 25.5898 179.904 25.5898ZM189.771 24.7703H191.848C192.406 24.7703 192.831 24.6185 193.122 24.315C193.426 23.9993 193.578 23.55 193.578 22.9672V16.5018C193.578 15.919 193.426 15.4758 193.122 15.1723C192.831 14.8566 192.406 14.6987 191.848 14.6987H189.771C189.213 14.6987 188.788 14.8566 188.496 15.1723C188.205 15.488 188.059 15.9311 188.059 16.5018V22.9672C188.059 23.5379 188.205 23.9811 188.496 24.2968C188.788 24.6124 189.213 24.7703 189.771 24.7703ZM191.939 25.5898H189.699C188.909 25.5898 188.284 25.3592 187.823 24.8978C187.373 24.4364 187.149 23.805 187.149 23.0037V16.4654C187.149 15.664 187.373 15.0326 187.823 14.5713C188.284 14.1099 188.909 13.8792 189.699 13.8792H191.939C192.728 13.8792 193.347 14.1099 193.796 14.5713C194.258 15.0326 194.488 15.664 194.488 16.4654V23.0037C194.488 23.805 194.258 24.4364 193.796 24.8978C193.347 25.3592 192.728 25.5898 191.939 25.5898ZM197.885 25.5898H197.357C197.236 25.5898 197.175 25.517 197.175 25.3713V14.0977C197.175 13.952 197.236 13.8792 197.357 13.8792H201.51C202.299 13.8792 202.924 14.1099 203.385 14.5713C203.847 15.0326 204.078 15.664 204.078 16.4654V18.1955C204.078 18.8755 203.901 19.434 203.549 19.8711C203.209 20.3082 202.742 20.5875 202.147 20.7089V20.7817L204.314 25.3713C204.387 25.517 204.345 25.5898 204.187 25.5898H203.622C203.464 25.5898 203.355 25.517 203.294 25.3713L201.145 20.7817H198.268C198.146 20.7817 198.086 20.8364 198.086 20.9456V25.3713C198.086 25.517 198.019 25.5898 197.885 25.5898ZM198.268 19.9986H201.418C201.977 19.9986 202.408 19.8468 202.712 19.5433C203.015 19.2276 203.167 18.7844 203.167 18.2138V16.5018C203.167 15.9311 203.015 15.488 202.712 15.1723C202.408 14.8566 201.977 14.6987 201.418 14.6987H198.268C198.146 14.6987 198.086 14.7534 198.086 14.8627V19.8347C198.086 19.944 198.146 19.9986 198.268 19.9986ZM62.8097 48.5898H61.2616C61.0066 48.5898 60.8791 48.4624 60.8791 48.2074V37.2616C60.8791 37.0067 61.0066 36.8792 61.2616 36.8792H65.5962C66.5432 36.8792 67.2839 37.1402 67.8181 37.6623C68.3523 38.1844 68.6195 38.919 68.6195 39.866V41.2866C68.6195 42.6586 68.0792 43.5693 66.9985 44.0185V44.0913L68.9473 48.1527C69.0566 48.4441 68.9534 48.5898 68.6377 48.5898H67.1625C66.9439 48.5898 66.7861 48.5656 66.6889 48.517C66.5918 48.4684 66.5129 48.3652 66.4522 48.2074L64.6309 44.2735H63.4107C63.265 44.2735 63.1921 44.3402 63.1921 44.4738V48.2074C63.1921 48.4624 63.0646 48.5898 62.8097 48.5898ZM63.3925 42.4158H65.1773C65.5658 42.4158 65.8512 42.3369 66.0333 42.179C66.2154 42.009 66.3065 41.7419 66.3065 41.3777V39.9571C66.3065 39.5807 66.2154 39.3075 66.0333 39.1375C65.8512 38.9675 65.5658 38.8826 65.1773 38.8826H63.3925C63.2589 38.8826 63.1921 38.9493 63.1921 39.0829V42.2155C63.1921 42.349 63.2589 42.4158 63.3925 42.4158ZM76.9545 48.5898H70.999C70.744 48.5898 70.6165 48.4624 70.6165 48.2074V37.2616C70.6165 37.0067 70.744 36.8792 70.999 36.8792H76.9545C77.1973 36.8792 77.3187 37.0067 77.3187 37.2616V38.5001C77.3187 38.7551 77.1973 38.8826 76.9545 38.8826H73.1481C73.0024 38.8826 72.9295 38.9493 72.9295 39.0829V41.4505C72.9295 41.5841 73.0024 41.6509 73.1481 41.6509H76.2624C76.5174 41.6509 76.6449 41.7784 76.6449 42.0333V43.2718C76.6449 43.5268 76.5174 43.6542 76.2624 43.6542H73.1481C73.0024 43.6542 72.9295 43.721 72.9295 43.8546V46.3861C72.9295 46.5197 73.0024 46.5865 73.1481 46.5865H76.9545C77.1973 46.5865 77.3187 46.714 77.3187 46.9689V48.2074C77.3187 48.4624 77.1973 48.5898 76.9545 48.5898ZM78.8175 45.603V45.2387C78.8175 44.9838 78.945 44.8563 79.2 44.8563H80.748C81.003 44.8563 81.1305 44.9838 81.1305 45.2387V45.3844C81.1305 45.8458 81.2216 46.1615 81.4037 46.3315C81.5858 46.5015 81.9197 46.5865 82.4054 46.5865H83.2614C83.7349 46.5865 84.0627 46.4954 84.2448 46.3133C84.4391 46.1312 84.5362 45.7912 84.5362 45.2934V45.0748C84.5362 44.7227 84.3905 44.4556 84.0991 44.2735C83.8199 44.0792 83.4678 43.9639 83.0428 43.9274C82.6179 43.891 82.1565 43.8242 81.6587 43.7271C81.173 43.6178 80.7177 43.4843 80.2927 43.3264C79.8678 43.1564 79.5096 42.8347 79.2182 42.3612C78.9389 41.8755 78.7993 41.2563 78.7993 40.5035V39.866C78.7993 38.919 79.0664 38.1844 79.6006 37.6623C80.1349 37.1402 80.8755 36.8792 81.8226 36.8792H83.6438C84.603 36.8792 85.3497 37.1402 85.884 37.6623C86.4182 38.1844 86.6853 38.919 86.6853 39.866V40.2121C86.6853 40.467 86.5578 40.5945 86.3029 40.5945H84.7548C84.4998 40.5945 84.3723 40.467 84.3723 40.2121V40.1028C84.3723 39.6293 84.2813 39.3075 84.0991 39.1375C83.917 38.9675 83.5831 38.8826 83.0975 38.8826H82.3872C81.8894 38.8826 81.5494 38.9797 81.3673 39.174C81.1973 39.3561 81.1123 39.7203 81.1123 40.2667V40.6127C81.1123 41.1834 81.6101 41.5112 82.6057 41.5962C83.6378 41.6812 84.5545 41.8876 85.3558 42.2155C85.7808 42.3976 86.1329 42.7254 86.4121 43.1989C86.7035 43.6603 86.8492 44.2553 86.8492 44.9838V45.603C86.8492 46.55 86.5821 47.2846 86.0479 47.8067C85.5137 48.3288 84.773 48.5898 83.826 48.5898H81.8408C80.8937 48.5898 80.1531 48.3288 79.6189 47.8067C79.0846 47.2846 78.8175 46.55 78.8175 45.603ZM90.6345 48.5898H89.0865C88.8315 48.5898 88.704 48.4624 88.704 48.2074V37.2616C88.704 37.0067 88.8315 36.8792 89.0865 36.8792H93.5303C94.4774 36.8792 95.212 37.1402 95.7341 37.6623C96.2561 38.1723 96.5172 38.9008 96.5172 39.8478V41.5962C96.5172 42.5433 96.2561 43.2779 95.7341 43.7999C95.212 44.3099 94.4774 44.5649 93.5303 44.5649H91.2356C91.0899 44.5649 91.017 44.6317 91.017 44.7652V48.2074C91.017 48.4624 90.8895 48.5898 90.6345 48.5898ZM91.2173 42.5433H93.1479C93.5364 42.5433 93.8096 42.4644 93.9674 42.3065C94.1253 42.1365 94.2042 41.8633 94.2042 41.487V39.9571C94.2042 39.5686 94.1253 39.2954 93.9674 39.1375C93.8096 38.9675 93.5364 38.8826 93.1479 38.8826H91.2173C91.0838 38.8826 91.017 38.9493 91.017 39.0829V42.3429C91.017 42.4765 91.0838 42.5433 91.2173 42.5433ZM101.326 46.5865H102.619C103.008 46.5865 103.281 46.5075 103.439 46.3497C103.609 46.1797 103.694 45.9005 103.694 45.5119V39.9571C103.694 39.5686 103.609 39.2954 103.439 39.1375C103.281 38.9675 103.008 38.8826 102.619 38.8826H101.326C100.938 38.8826 100.665 38.9675 100.507 39.1375C100.349 39.2954 100.27 39.5686 100.27 39.9571V45.5119C100.27 45.9005 100.349 46.1797 100.507 46.3497C100.665 46.5075 100.938 46.5865 101.326 46.5865ZM103.002 48.5898H100.962C100.003 48.5898 99.2621 48.3349 98.7401 47.8249C98.218 47.315 97.9569 46.5804 97.9569 45.6212V39.8478C97.9569 38.8886 98.218 38.1541 98.7401 37.6441C99.2621 37.1342 100.003 36.8792 100.962 36.8792H103.002C103.961 36.8792 104.702 37.1342 105.224 37.6441C105.746 38.1541 106.007 38.8886 106.007 39.8478V45.6212C106.007 46.5804 105.746 47.315 105.224 47.8249C104.702 48.3349 103.961 48.5898 103.002 48.5898ZM109.859 48.5898H108.348C108.093 48.5898 107.965 48.4624 107.965 48.2074V37.2616C107.965 37.0067 108.093 36.8792 108.348 36.8792H109.714C109.969 36.8792 110.139 36.9642 110.224 37.1342L113.903 44.0367H113.975V37.2616C113.975 37.0067 114.103 36.8792 114.358 36.8792H115.87C116.125 36.8792 116.252 37.0067 116.252 37.2616V48.2074C116.252 48.4624 116.125 48.5898 115.87 48.5898H114.54C114.273 48.5898 114.079 48.4684 113.957 48.2256L110.315 41.4505H110.242V48.2074C110.242 48.4624 110.114 48.5898 109.859 48.5898ZM118.105 45.603V45.2387C118.105 44.9838 118.232 44.8563 118.487 44.8563H120.036C120.29 44.8563 120.418 44.9838 120.418 45.2387V45.3844C120.418 45.8458 120.509 46.1615 120.691 46.3315C120.873 46.5015 121.207 46.5865 121.693 46.5865H122.549C123.022 46.5865 123.35 46.4954 123.532 46.3133C123.727 46.1312 123.824 45.7912 123.824 45.2934V45.0748C123.824 44.7227 123.678 44.4556 123.387 44.2735C123.107 44.0792 122.755 43.9639 122.33 43.9274C121.905 43.891 121.444 43.8242 120.946 43.7271C120.46 43.6178 120.005 43.4843 119.58 43.3264C119.155 43.1564 118.797 42.8347 118.506 42.3612C118.226 41.8755 118.087 41.2563 118.087 40.5035V39.866C118.087 38.919 118.354 38.1844 118.888 37.6623C119.422 37.1402 120.163 36.8792 121.11 36.8792H122.931C123.891 36.8792 124.637 37.1402 125.171 37.6623C125.706 38.1844 125.973 38.919 125.973 39.866V40.2121C125.973 40.467 125.845 40.5945 125.59 40.5945H124.042C123.787 40.5945 123.66 40.467 123.66 40.2121V40.1028C123.66 39.6293 123.569 39.3075 123.387 39.1375C123.204 38.9675 122.871 38.8826 122.385 38.8826H121.675C121.177 38.8826 120.837 38.9797 120.655 39.174C120.485 39.3561 120.4 39.7203 120.4 40.2667V40.6127C120.4 41.1834 120.898 41.5112 121.893 41.5962C122.925 41.6812 123.842 41.8876 124.643 42.2155C125.068 42.3976 125.42 42.7254 125.7 43.1989C125.991 43.6603 126.137 44.2553 126.137 44.9838V45.603C126.137 46.55 125.87 47.2846 125.335 47.8067C124.801 48.3288 124.06 48.5898 123.113 48.5898H121.128C120.181 48.5898 119.441 48.3288 118.906 47.8067C118.372 47.2846 118.105 46.55 118.105 45.603ZM130.396 37.2616V48.2074C130.396 48.4624 130.268 48.5898 130.013 48.5898H128.465C128.21 48.5898 128.083 48.4624 128.083 48.2074V37.2616C128.083 37.0067 128.21 36.8792 128.465 36.8792H130.013C130.268 36.8792 130.396 37.0067 130.396 37.2616ZM135.138 46.6593H137.178C137.578 46.6593 137.864 46.5804 138.034 46.4226C138.216 46.2526 138.307 45.9794 138.307 45.603V44.5467C138.307 44.1703 138.216 43.9031 138.034 43.7453C137.851 43.5875 137.554 43.5085 137.141 43.5085H135.138C135.004 43.5085 134.937 43.5753 134.937 43.7089V46.459C134.937 46.5925 135.004 46.6593 135.138 46.6593ZM135.138 41.6327H136.995C137.384 41.6327 137.669 41.5537 137.851 41.3959C138.034 41.2259 138.125 40.9527 138.125 40.5763V39.866C138.125 39.4896 138.034 39.2225 137.851 39.0647C137.681 38.8947 137.402 38.8097 137.014 38.8097H135.138C135.004 38.8097 134.937 38.8765 134.937 39.01V41.4323C134.937 41.5659 135.004 41.6327 135.138 41.6327ZM132.624 48.2074V37.2616C132.624 37.0067 132.752 36.8792 133.007 36.8792H137.378C138.337 36.8792 139.078 37.1342 139.6 37.6441C140.122 38.1541 140.383 38.8826 140.383 39.8296V40.5763C140.383 41.6084 139.903 42.2762 138.944 42.5797C139.43 42.6526 139.818 42.8529 140.11 43.1807C140.401 43.4964 140.547 43.9517 140.547 44.5467V45.6394C140.547 46.5865 140.286 47.315 139.764 47.8249C139.242 48.3349 138.507 48.5898 137.56 48.5898H133.007C132.752 48.5898 132.624 48.4624 132.624 48.2074ZM148.878 48.5898H142.887C142.632 48.5898 142.504 48.4624 142.504 48.2074V37.2616C142.504 37.0067 142.632 36.8792 142.887 36.8792H144.435C144.69 36.8792 144.817 37.0067 144.817 37.2616V46.3679C144.817 46.5015 144.89 46.5683 145.036 46.5683H148.878C149.121 46.5683 149.243 46.7018 149.243 46.9689V48.2074C149.243 48.4624 149.121 48.5898 148.878 48.5898ZM156.801 48.5898H150.845C150.59 48.5898 150.463 48.4624 150.463 48.2074V37.2616C150.463 37.0067 150.59 36.8792 150.845 36.8792H156.801C157.044 36.8792 157.165 37.0067 157.165 37.2616V38.5001C157.165 38.7551 157.044 38.8826 156.801 38.8826H152.994C152.849 38.8826 152.776 38.9493 152.776 39.0829V41.4505C152.776 41.5841 152.849 41.6509 152.994 41.6509H156.109C156.364 41.6509 156.491 41.7784 156.491 42.0333V43.2718C156.491 43.5268 156.364 43.6542 156.109 43.6542H152.994C152.849 43.6542 152.776 43.721 152.776 43.8546V46.3861C152.776 46.5197 152.849 46.5865 152.994 46.5865H156.801C157.044 46.5865 157.165 46.714 157.165 46.9689V48.2074C157.165 48.4624 157.044 48.5898 156.801 48.5898ZM163.955 48.5898H162.206C161.988 48.5898 161.915 48.4624 161.988 48.2074L164.865 37.2616C164.95 37.0067 165.132 36.8792 165.412 36.8792H167.834C168.137 36.8792 168.32 37.0067 168.38 37.2616L171.258 48.2074C171.331 48.4624 171.258 48.5898 171.039 48.5898H169.291C169.157 48.5898 169.066 48.5656 169.018 48.517C168.969 48.4563 168.933 48.3531 168.908 48.2074L168.399 46.204H164.847L164.337 48.2074C164.313 48.3531 164.27 48.4563 164.21 48.517C164.161 48.5656 164.076 48.5898 163.955 48.5898ZM166.596 39.0829L165.284 44.3463H167.98L166.668 39.0829H166.596ZM175.054 37.2616V48.2074C175.054 48.4624 174.926 48.5898 174.671 48.5898H173.123C172.868 48.5898 172.741 48.4624 172.741 48.2074V37.2616C172.741 37.0067 172.868 36.8792 173.123 36.8792H174.671C174.926 36.8792 175.054 37.0067 175.054 37.2616Z" fill="white"/>
<path d="M34.0392 55.5236L28.2794 44.9502H34.8739L37.0164 48.8735L39.1311 44.9502H45.7255L39.9658 55.5236V63.5093H34.0392V55.5236Z" fill="white"/>
<path d="M28.2942 12.0664H34.4713V25.7562H39.591V30.6255H28.2942V12.0664Z" fill="white"/>
<path d="M9.06762 30.7847H15.2447V44.4744H20.3645V49.3438H9.06762V30.7847Z" fill="white"/>
<path d="M9.51832 2.45409H13.9703L21.0099 21.0132H15.1667L14.5546 19.3437H8.934L8.32185 21.0132H2.47866L9.51832 2.45409ZM12.9964 15.2535L11.7443 11.998L10.4922 15.2535H12.9964Z" fill="white"/>
</svg>
