<svg width="20" height="20" viewBox="0 0 20 20" fill="none" xmlns="http://www.w3.org/2000/svg">
<path d="M15 6.66667V1.66667M12.5 4.16667H17.5" stroke="#344054" stroke-width="1.66667" stroke-linecap="round" stroke-linejoin="round"/>
<path d="M7.38672 12.2625H3.57422C3.06884 12.2631 2.58433 12.4641 2.22696 12.8215C1.8696 13.1789 1.66857 13.6634 1.66797 14.1688V17.9813C1.66797 19.032 2.52197 19.8875 3.57422 19.8875H7.38672C8.43821 19.8875 9.29297 19.032 9.29297 17.9813V14.1688C9.29297 13.118 8.43821 12.2625 7.38672 12.2625ZM7.76797 17.9813C7.76797 18.0824 7.7278 18.1793 7.6563 18.2508C7.5848 18.3223 7.48783 18.3625 7.38672 18.3625H3.57422C3.4731 18.3625 3.37613 18.3223 3.30463 18.2508C3.23314 18.1793 3.19297 18.0824 3.19297 17.9813V14.1688C3.19297 14.0676 3.23314 13.9707 3.30463 13.8992C3.37613 13.8277 3.4731 13.7875 3.57422 13.7875H7.38672C7.48783 13.7875 7.5848 13.8277 7.6563 13.8992C7.7278 13.9707 7.76797 14.0676 7.76797 14.1688V17.9813Z" fill="#344054"/>
<path d="M16.5508 9.7625H12.7383C12.2329 9.76311 11.7484 9.96414 11.391 10.3215C11.0337 10.6789 10.8326 11.1634 10.832 11.6688V15.4813C10.832 16.532 11.686 17.3875 12.7383 17.3875H16.5508C17.6023 17.3875 18.457 16.532 18.457 15.4813V11.6688C18.457 10.618 17.6023 9.7625 16.5508 9.7625ZM16.932 15.4813C16.932 15.5824 16.8919 15.6793 16.8204 15.7508C16.7489 15.8223 16.6519 15.8625 16.5508 15.8625H12.7383C12.6372 15.8625 12.5402 15.8223 12.4687 15.7508C12.3972 15.6793 12.357 15.5824 12.357 15.4813V11.6688C12.357 11.5676 12.3972 11.4707 12.4687 11.3992C12.5402 11.3277 12.6372 11.2875 12.7383 11.2875H16.5508C16.6519 11.2875 16.7489 11.3277 16.8204 11.3992C16.8919 11.4707 16.932 11.5676 16.932 11.6688V15.4813Z" fill="#344054"/>
<path d="M8.21875 1.2625H4.40625C3.90087 1.26311 3.41636 1.46414 3.059 1.8215C2.70164 2.17886 2.50061 2.66337 2.5 3.16875V6.98125C2.5 8.03198 3.354 8.8875 4.40625 8.8875H8.21875C9.27024 8.8875 10.125 8.03198 10.125 6.98125V3.16875C10.125 2.11803 9.27024 1.2625 8.21875 1.2625ZM8.6 6.98125C8.6 7.08236 8.55983 7.17934 8.48833 7.25084C8.41684 7.32233 8.31986 7.3625 8.21875 7.3625H4.40625C4.30514 7.3625 4.20816 7.32233 4.13667 7.25084C4.06517 7.17934 4.025 7.08236 4.025 6.98125V3.16875C4.025 3.06764 4.06517 2.97066 4.13667 2.89917C4.20816 2.82767 4.30514 2.7875 4.40625 2.7875H8.21875C8.31986 2.7875 8.41684 2.82767 8.48833 2.89917C8.55983 2.97066 8.6 3.06764 8.6 3.16875V6.98125Z" fill="#344054"/>
</svg>
